<svg width="243" height="194" viewBox="0 0 243 194" fill="none" xmlns="http://www.w3.org/2000/svg">
<path d="M232.395 190.173C233.155 190.383 233.745 190.753 234.255 191.243L235.715 191.883C236.935 192.413 238.125 192.803 239.195 193.673C236.425 193.913 234.285 192.833 232.235 191.513C230.475 191.283 228.765 190.523 227.325 189.503C226.535 189.303 225.785 188.903 225.115 188.413L223.855 187.483L221.745 186.113L222.145 184.673L220.795 185.393L218.555 183.543L216.805 181.543C216.285 180.953 215.505 180.653 215.035 180.033L213.535 178.083L212.555 177.843C212.385 177.803 212.715 177.153 212.755 177.073L210.915 174.893L209.625 173.253L208.055 171.203C208.435 168.343 205.195 169.163 205.635 165.253L204.985 165.183C204.795 165.163 204.685 164.553 204.605 164.353L203.825 162.393C203.595 161.813 203.475 160.873 203.415 160.283L202.555 157.503L201.705 152.803L201.135 149.683L197.915 151.543L195.345 152.923L194.855 152.093C194.745 152.793 194.365 153.333 193.815 153.593L191.715 154.573C191.285 154.773 190.435 154.873 189.915 154.873L189.255 155.473C189.065 155.643 188.605 155.303 188.205 155.003L186.515 156.663L185.265 155.733L183.555 157.583L182.285 156.433C182.045 156.683 181.365 157.293 181.015 157.243C180.665 157.193 180.195 156.983 179.575 156.703C179.375 158.423 178.165 158.843 176.825 159.053L174.435 159.913C173.875 160.113 173.205 159.993 172.735 159.573C172.655 159.623 172.105 160.143 171.895 160.003L170.815 159.293C170.595 159.733 170.085 160.773 169.585 160.893C168.655 161.113 167.635 160.053 167.365 158.963L166.725 160.393L164.795 160.503C164.465 160.613 164.145 160.613 164.065 160.783L163.605 161.883L162.485 160.803L162.105 162.043C162.005 162.373 160.735 162.363 160.655 162.033L160.275 160.493L158.865 160.753L157.445 161.633L156.655 161.223C156.435 161.103 156.045 161.443 155.765 161.673C154.355 160.923 152.395 160.783 151.245 162.133L148.475 160.653L147.015 161.953L146.605 160.633C146.535 160.403 145.685 160.313 145.545 160.513L144.735 161.713L144.305 160.583C144.185 160.283 143.225 160.653 142.935 160.663L140.795 159.583C140.635 159.923 140.395 160.573 140.235 160.463C138.685 159.393 137.325 161.023 136.025 159.193L135.375 160.593C135.235 160.903 134.165 160.633 133.935 160.343C133.715 160.083 133.735 159.753 133.725 158.923L131.895 159.843C131.635 159.973 130.805 160.093 130.625 159.863L129.865 158.883L128.235 159.153L128.385 158.343C128.415 158.193 128.135 157.893 128.085 157.883L127.355 158.603C127.355 158.603 124.285 158.503 123.635 156.733C123.175 157.083 122.595 157.343 122.095 157.133C121.735 156.983 121.485 156.253 121.495 155.893C121.005 156.183 120.175 156.363 119.815 156.163L118.825 155.593C118.615 155.473 118.785 154.983 118.825 154.653L118.385 155.093C118.315 155.163 118.235 155.193 118.175 155.123L117.665 154.543C116.295 154.643 114.645 153.823 114.285 152.603C113.565 150.153 110.335 153.013 110.625 150.013C108.365 149.593 106.435 148.623 104.745 147.093L100.035 142.833L97.3452 139.933L93.4452 134.223C90.2552 128.713 87.8752 122.963 86.0152 116.833L85.3152 113.683C85.1252 112.833 84.3052 112.093 84.1152 111.253L81.4752 99.1233L80.4952 91.8033C80.4652 91.5833 80.2652 91.0633 80.1452 90.8733C80.0052 90.6433 79.2352 90.8033 78.9852 90.9233L74.1452 93.1633L70.4552 94.7233L69.9852 94.3133C69.8952 94.2333 69.7252 94.8033 69.6752 95.0033L64.8052 96.5433L59.0952 97.9333C57.4252 98.3433 55.6252 98.6733 53.8652 98.8733L51.4252 99.1533C48.2952 99.5133 45.1952 99.5133 42.0452 99.2333L37.9652 98.8733L31.5752 97.5633L27.4452 96.1733L24.5452 95.1933L18.8852 92.1833L16.5952 90.6333L12.9952 87.7333L9.1652 84.1433C6.1152 81.2933 4.0652 77.8033 2.3552 74.0233L1.1552 71.3633L0.0352039 68.7333C-0.154796 68.3033 0.465204 67.3633 0.915204 67.1733C1.5252 66.9033 2.4052 67.4233 2.6952 68.1433L4.2152 71.9433L6.6952 77.4433L8.0652 79.0733C10.8452 82.4033 13.8452 85.4733 17.3052 88.0933L20.5452 90.5533C21.2952 91.1233 22.0852 91.5833 22.9752 91.9533L27.3652 93.7733C32.7052 95.9833 38.2852 97.1833 44.1352 97.0533L51.1652 96.9033L55.6952 96.1833L61.3452 95.3133C62.6552 94.5433 64.0152 94.0833 65.5152 93.9233C66.8352 92.9733 68.4052 92.7733 69.7952 92.2533L76.5152 89.7633L79.8552 87.8033L79.8252 81.6033L79.9152 79.3633L81.1252 80.0733C81.8552 80.5033 80.8852 81.8633 81.3552 83.5733L82.1552 86.5033C82.1952 86.6633 82.2652 86.9233 82.2652 86.9233C82.2652 86.9233 82.8552 86.8533 82.9252 86.8033L87.1252 84.2333L89.5252 82.6833L92.1352 80.8633L99.5652 75.2633L104.115 71.6333L108.025 68.3433L111.355 65.4633L115.925 61.1233C116.395 60.6733 116.905 60.0033 117.265 59.5033C119.535 57.7233 120.135 55.7733 121.895 53.8733L124.375 51.2133L126.825 48.0733L129.365 44.3533L131.105 41.6733C133.915 37.3333 136.275 32.8833 137.375 27.7933C137.835 25.6833 137.895 23.5433 137.925 21.3233C137.935 20.2233 137.665 19.2633 137.485 18.1633L137.155 16.0833L136.055 13.1933L132.165 9.05331L129.765 7.12331L126.115 4.88331L122.215 3.47331C121.185 3.10331 120.505 2.72331 119.955 1.80331L119.375 2.34331C119.225 2.48331 118.805 2.19331 118.625 2.07331C116.465 2.78331 112.955 1.55331 110.185 2.76331L105.485 4.82331C104.215 5.37331 98.8652 10.2733 97.3252 12.3633L94.3052 16.4533L93.1352 18.1733L90.4852 22.9833L89.6552 25.0733L88.7352 27.4233L87.8452 30.1733L87.5552 31.8933L86.3152 35.5533L85.1052 38.8133L84.6852 39.7333C84.6052 39.9133 85.3552 39.8233 85.3852 39.8433C84.8552 41.3133 84.5252 42.3733 84.3252 43.7633L84.0152 45.8933L82.4852 55.6533L81.9252 59.4633C81.8152 60.2233 81.9052 60.7333 81.7752 61.6333L81.2752 65.0833L81.3152 70.4933L81.1552 72.7833C81.5452 73.8433 81.5252 75.2133 81.1452 76.2433L81.6052 76.8833C81.7152 77.0333 81.0052 77.2433 80.8252 77.3433C80.5652 77.4933 80.3052 77.9533 79.9152 78.5733C79.7852 77.8933 79.6452 76.7133 79.6552 75.8333L79.7052 70.8333L80.2552 59.8133L81.0652 53.3133L82.2552 45.6833C82.7352 42.5833 83.2952 39.6633 84.2252 36.6633L86.4752 29.4233L88.0852 25.0733C88.6052 23.6533 89.1952 22.3933 89.9452 21.1333C91.1452 19.1033 92.0952 16.7633 93.5152 14.7333L94.8652 12.8133L96.8852 9.99331C97.1352 9.65331 97.8552 9.51331 98.4552 9.61331L98.2752 8.31331L103.415 4.13331C107.725 0.613308 113.005 -0.536692 118.445 0.223308L121.125 0.803308L123.745 1.54331L124.725 1.56331C124.945 1.56331 124.875 1.98331 124.905 2.63331L125.955 1.99331L128.455 3.34331L128.665 4.62331C129.335 4.22331 129.995 4.19331 130.585 4.66331L134.325 7.57331C136.085 8.94331 137.105 11.1633 138.275 13.0833C139.105 14.4433 139.345 16.0833 139.575 17.6433L138.925 17.5933C138.795 17.5933 138.805 17.6133 138.715 18.2833L139.735 17.7233C140.835 20.6833 140.105 23.5833 139.455 26.4433L138.515 30.5933L137.555 32.9333L135.795 36.4833L134.785 38.5133L132.635 42.2833L130.835 45.0033L128.725 48.0633C128.625 48.2133 127.865 48.2533 127.845 48.4133L127.675 49.5033C126.845 51.0433 125.435 51.4233 124.755 53.0733C124.385 53.9733 123.395 54.4633 122.635 54.7433C122.475 55.7333 121.925 56.4733 121.195 57.2633L116.095 62.7833L109.635 69.0633L107.415 71.2733C106.465 72.2233 105.235 72.8133 104.245 73.8033L102.075 75.9833L97.8852 79.5933L96.8052 79.9533L95.0052 81.4333C93.2952 82.8433 91.6052 83.8933 89.6252 85.0133L87.4252 86.2633L85.2052 87.6333L82.5152 89.2333C82.3052 90.9133 82.5352 93.1033 82.8652 94.9433L83.7952 100.243L85.0452 106.043C85.3052 107.273 85.6352 108.273 85.1052 109.503L86.1852 110.253L87.2952 114.063C87.6352 115.223 87.8152 115.453 87.0252 116.883L87.9752 116.233L90.2252 121.723C90.3952 122.123 91.0252 123.243 90.6352 123.263L89.8652 123.303C89.7152 123.303 89.5352 123.523 89.4552 123.653C89.3552 123.823 89.8052 124.343 90.0252 124.363C91.9552 124.533 91.9552 126.423 93.6252 129.243L96.5352 134.163L100.065 139.093C101.165 139.653 102.155 140.503 102.975 141.633C103.415 142.133 104.115 143.133 104.595 143.443L106.635 144.733L115.245 150.273L118.625 152.373L122.385 153.753L125.445 154.833L129.275 156.013C129.845 156.183 130.315 156.493 130.605 157.053C130.575 157.053 131.185 156.563 131.395 156.613L133.885 157.213L141.845 158.243L144.915 158.683C145.905 158.823 146.825 158.953 147.565 159.393C148.205 159.023 149.055 158.943 150.035 158.953L161.805 158.973L167.185 158.403L170.255 158.073C170.485 158.043 171.085 157.673 171.265 157.773L172.205 158.283C172.875 157.403 173.625 157.273 174.635 157.013L179.095 155.893L186.145 153.803L188.305 152.943L191.695 151.503L197.705 148.573L200.625 146.943L200.645 144.093C200.405 139.243 200.675 134.423 201.095 129.573L201.745 128.723C201.885 128.533 201.525 128.173 201.165 127.763L201.675 124.343L201.595 123.273C201.575 122.993 202.105 122.703 202.525 122.353L202.005 121.423C201.885 121.203 202.365 120.563 202.365 120.293C202.355 118.663 202.425 116.693 202.795 114.943L203.745 112.413C203.745 111.383 203.745 110.333 204.035 109.343L204.915 106.263L205.845 103.023L206.575 103.263C206.745 103.313 207.145 103.053 207.085 102.893C207.025 102.733 206.545 102.153 206.545 101.983C206.545 100.903 207.355 99.0033 208.015 97.9433L209.425 95.6933C210.635 93.7533 212.325 92.3733 214.135 90.9133C216.455 89.0433 219.245 88.3533 222.195 87.8533C223.015 87.7133 223.845 87.9933 224.325 88.7933C224.845 88.9333 224.475 87.8833 225.455 87.7033C225.775 87.6433 226.625 88.0133 226.805 88.3133C227.005 88.6333 226.045 89.2133 225.705 89.3633L225.415 89.9533C224.285 90.2933 223.245 90.2833 221.725 89.9433L221.675 90.2633L218.075 91.3933C217.445 91.5933 213.395 94.4933 212.815 95.3433C207.935 102.463 207.755 104.443 205.875 112.163L204.885 116.213C204.785 118.573 204.515 121.013 203.985 123.313L202.745 123.663C202.465 123.743 203.155 124.543 203.595 124.733L203.315 134.093L203.125 139.403C203.085 140.453 203.015 141.183 202.465 141.773C203.475 143.513 203.085 145.693 203.265 145.563L203.855 145.143L206.615 143.243L208.255 143.983L207.615 142.723L210.405 140.783L218.475 134.333L220.625 132.383C220.755 132.273 221.115 132.173 221.235 132.243L221.855 132.603C221.995 130.903 223.065 129.763 224.405 129.393C225.435 127.763 226.935 126.563 228.155 125.173L229.855 123.243C230.795 122.183 231.635 120.893 232.985 120.353L233.385 119.533C233.945 118.403 234.645 116.953 235.545 116.103C238.195 116.713 235.675 111.663 240.455 109.553L239.795 107.593C239.645 107.153 240.445 106.393 240.795 106.083L240.675 104.123C241.025 103.743 241.085 103.683 240.855 103.923L240.305 103.613L239.785 99.1333C239.615 97.7133 238.825 96.4233 238.115 95.2633C236.425 92.4733 232.745 91.7833 229.625 90.9833L227.215 90.3633C226.975 90.0533 227.385 88.7733 227.815 88.4433L228.425 87.9733C228.805 87.6833 229.145 89.7533 229.575 89.5433L230.815 88.9133C231.705 88.7433 233.635 89.1933 234.305 89.7833L235.715 91.5633L236.655 90.6033L237.805 91.9633L239.525 93.5933L240.075 94.1233C240.225 94.2633 239.665 94.4933 239.365 94.6033C238.905 95.7633 240.355 94.6733 241.145 95.9933C241.335 96.3233 241.065 96.9633 240.785 97.4333C241.415 98.1333 241.735 98.9733 241.795 100.003C241.855 100.253 242.245 100.853 242.075 101.033L241.085 102.053C241.085 102.053 241.575 102.373 241.545 102.353C241.845 102.063 242.065 101.853 242.045 101.883C242.025 101.903 242.375 102.163 242.475 102.233L242.275 104.703L241.985 107.513C241.945 107.933 241.745 108.683 241.605 109.073C241.715 110.793 240.805 112.373 238.945 112.903C238.775 115.083 237.865 116.953 236.235 118.383L234.525 121.393C234.285 121.813 232.895 121.923 232.315 121.953C232.305 123.743 231.815 125.163 230.355 126.133L229.065 127.773L228.655 126.953C228.655 126.953 228.515 126.863 228.535 126.923L228.685 127.413C228.755 127.653 228.775 128.403 228.545 128.533L227.565 129.063L226.315 130.303L224.785 131.303L224.165 131.033C224.035 130.973 223.645 130.903 223.695 131.033L223.975 131.893C224.105 132.303 223.345 132.953 223.025 133.283L220.915 135.423C219.305 137.053 218.595 136.323 218.275 137.083L217.845 138.093C217.735 138.363 216.915 138.293 216.705 138.093L216.275 137.673C216.065 137.473 215.205 140.293 213.745 140.543C211.195 140.973 210.085 142.653 210.375 142.963C210.565 143.163 210.835 143.443 210.825 143.453L210.385 144.133L209.075 142.943L207.745 145.553L204.085 147.863C203.815 148.033 203.585 148.743 203.635 149.103C204.365 154.033 205.255 158.693 206.855 163.413L206.795 166.343L207.825 165.683C208.905 168.473 210.375 171.313 212.485 173.723L212.365 174.243L212.265 174.653L212.285 175.153L212.795 174.723L218.485 180.663C220.935 183.223 223.125 183.313 223.725 185.523L224.335 184.953L225.405 186.183L228.105 187.523C228.675 187.903 228.485 188.103 228.455 188.313L228.395 188.753C228.705 188.463 229.245 188.103 229.475 188.253L230.555 188.973L231.265 189.873L231.925 189.493L232.385 190.103L232.395 190.173ZM192.905 151.713L191.835 152.423L192.785 152.443C192.935 152.443 192.945 152.013 192.915 151.713H192.905ZM186.735 154.423C187.675 154.713 187.965 154.603 188.205 154.383C188.355 154.243 188.085 153.853 187.805 153.573L186.735 154.423Z" fill="#2956E0"/>
</svg>
