<svg width="344" height="318" viewBox="0 0 344 318" fill="none" xmlns="http://www.w3.org/2000/svg">
<path d="M249.57 151.12C249.51 149.48 249.4 147.19 248.68 146.2C246.74 144.73 246.02 143.45 245.68 141.32L243.55 135.79C243.45 135.79 242.54 136.01 242.53 135.77L242.45 134.3C242.33 132.09 240.21 130.9 238.88 129.37L236.12 126.21L236.38 124.77C236.44 124.46 235.3 124.59 234.98 124.68C232.84 122.11 230.6 119.87 228.14 117.55L224.26 113.88L216.44 109.24L212.68 107.31L208.5 105.53C206.95 104.87 205.51 104.07 204.15 103.12L203.05 103.9C202.81 104.07 202.06 103.37 201.76 103.34L197.58 102.94L194.01 102.58L189.88 102.54L186.29 102.5C184.91 102.48 182.97 102.88 181.58 103.2L177.45 104.16C175.04 104.72 172.98 104.98 170.74 105.87L166.04 107.73L162.36 109.26C161.41 109.66 160.63 110.07 159.78 110.6C157.38 112.09 154.79 113.3 152.74 115.18L149.52 118.14L147.42 120.31L143.87 124.38L140.95 128.36L137.46 133.68L135.08 138.92L134.13 141.83L132.92 147.95C131.66 156.86 134.25 165.94 139.62 173.03L145.36 179.02L148.92 182.34L152.99 185.85L159.2 190.48C160.26 191.27 163.86 190.71 166.17 189.79L168.84 191.78L168.48 196.13L166.21 198.83L162.67 198.33C162.17 198.26 161.52 198.02 161.23 197.85C160.94 197.68 160.99 196.79 161 196.16C159.51 195.3 157.1 194.34 155.84 193.15C153.9 191.3 152.72 189.34 150.44 187.91C147.1 185.82 146.3 181.64 141.03 178.37L138.32 174.95C137.57 174.01 135.15 172.37 133.93 168.76L131.9 162.75L131.29 158.96L130.69 153.56L130.63 149.33L131.82 143.48C133.6 134.74 138.18 127.34 144.04 120.69L146.49 117.91L148.87 115.82L152.33 112.83L157.16 109.6L164.09 105.66L168.09 104.21L171.14 102.77L175.53 101.37C176.83 100.96 178.18 100.9 179.52 101.28C181.43 100.22 183.57 99.59 185.74 100.02C187.26 98.98 189.07 99.26 190.48 100.22L191.83 99.47C192.14 99.3 192.69 100.2 192.86 100.52L193.87 99.96C194.15 99.81 194.8 100.37 195 100.5L195.92 99.45C195.92 99.45 201.77 99.42 203.09 100.56C204.51 101.79 205.48 102.63 207.42 101.4L214.34 104.31C215.32 106.13 216.75 107.39 218.86 107.99L218.59 107.11C218.55 106.98 218.55 106.53 218.67 106.6L219.44 106.98C223.49 108.96 227.03 111.4 230.29 114.63L232.65 116.97L238.71 123.86L240.93 127.25L243.81 132.04L245.22 135.03C246.15 137.02 247.36 138.52 247.73 140.67C248.62 141.94 249.32 143.37 249.81 144.99L251.71 149L254.28 155.7L256.55 162.25L257.72 167.48L258.96 173.93L259.76 180.21L260.61 191.25C260.33 198.93 259.29 206.5 257.57 213.95L256.04 218.3C256.24 218.66 256.39 219.23 256.27 219.55L254.87 223.33L252.33 231.63C251.4 234.69 250.15 237.52 248.56 240.32L247.62 243.77L241.23 254.78C240.8 255.52 239.78 256.52 239.27 257.07C238.82 258.37 238.01 259.72 237.2 260.66L236.41 259.88L236.88 261.27C237 261.62 236.19 262.4 235.83 262.63C235.06 263.13 234.94 263.49 234.39 264.49C233.11 266.81 230.62 270.05 228.96 271.92L227.69 272.36L227.31 273.76L223.6 278.06L218.06 283.8L214.12 287.13L213.51 286.24L214.95 285.59C215.28 285.44 214.36 284.43 214.09 284.21L215.75 281.88C217.58 281.25 218.74 280.25 219.4 278.26L222.07 276.33C222.46 275.13 223.24 274.38 224.27 274.39L225.27 272.21C225.39 271.96 225.83 271.24 226.1 271.23L227.1 271.17C227.55 269.78 228.33 268.61 229.43 267.48C230.28 266.61 230.52 265.48 231.33 264.45L233.72 261.42L234.68 260.92C234.86 260.83 234.71 260.32 234.66 259.85L239.51 252.68L243.86 244.91L246.23 241.74L248.94 235.21C249.88 232.95 250.72 231.15 251.41 228.77L253.75 220.66L257.13 207.6L258.57 197.4C259.02 194.2 258.93 191.16 258.6 187.85L258.12 182.99C257.47 176.4 256.39 170.13 254.73 163.7C254.38 162.34 254.05 161.04 253.41 159.76L251.12 155.17C250.55 154.03 249.66 152.54 249.61 151.12H249.57Z" fill="#2956E0"/>
<path d="M56.46 43.26C57.32 42.87 58.18 42.16 57.95 40.96L58.89 41C59.19 41.01 59.51 39.98 59.7 39.73C61.93 38.72 62.36 36.55 65.22 35.2L63.07 37.9L71.32 32.25L79.85 26.57L78.88 25.4L81.46 25.53L87.57 21.68L84.15 22.6L89.09 19.61L88.97 21.34L93.53 19.06L99.5 16.23L113.68 10.42L128.05 6.57C130.28 5.97 132.14 5.51 134.62 5.51C134 6.06 133.38 6.31 132.61 6.46L128.16 7.37L120.46 9.46L117.55 10.17L106.31 14.14L100.34 16.69L89.79 21.81L88.61 21.72C88.36 21.7 88.12 22.68 87.88 22.82L80.64 27.04L77.41 29.13L70.78 33.76L63.67 38.76L59.16 42.58L56.02 45.13L48.86 51.95L41.18 60.32L35.64 66.92L32 72.11L24.61 83.9L19.38 93.25L15.63 101.52C13.94 105.25 12.27 108.55 11.29 112.55L9.04 118.89L5.43 134.64L4.15 142.15L3.12 148.1L1.99 159.51L1.68 165C0.88 179.35 1.9 193.49 5.21 207.46L10.4 224.37L13.86 233L17.34 240.32L20.54 246.03L22.39 249.4L27.01 256.83L31.4 262.87L33.18 265.46L41.11 274.88L45.07 279.12L45.64 280.2C45.74 280.39 46.33 280.11 46.77 279.94L50.88 284.7L60.5 292.03L62.85 294.01L67.17 296.58L75.41 301.18L84.67 305.49C84.87 305.58 85.69 305.62 85.71 305.44L85.76 304.71C86.12 304.69 87.14 304.71 87.08 304.93L86.68 306.43L92.54 308.36L93.71 308.45C93.85 308.46 93.74 308.04 93.65 307.93C93.32 307.49 93.1 307.15 93.31 307.17L94.59 307.25C94.67 307.25 95.14 307.46 95.2 307.51L95.79 308.02C95.88 308.1 95.88 308.31 95.75 308.29L94.91 308.15C94.78 308.13 94.43 308.1 94.34 308.2L93.94 308.6C93.85 308.69 94.5 308.84 94.64 308.89L99.25 310.3L103.3 311.49L114.43 314L122.78 315.31L124.42 315.13C124.53 315.12 124.85 315.18 125.55 315.31L126 314.78L120.57 313.94L120.66 313.58L121.97 312.99C122.18 312.89 122.62 313.24 122.88 313.38C127.43 312.04 128.16 314.6 129.81 313.57C133.08 314.65 136.53 312.81 135.82 314.28C135.66 314.6 134.98 314.86 134.58 314.84L130.51 314.63C129.03 314.55 127.58 314.51 126.24 315.23L136.4 315.51C136.56 314.68 136.91 313.7 137.26 313.46C137.67 313.18 138.67 314.01 139.09 314.44L136.82 315.42C137.19 315.58 138.5 315.73 138.83 315.41C139.21 315.03 139.54 314.38 140.11 313.35L143.28 313.27L148.4 312.92C149.72 311.75 151.3 312.13 153.26 312.2L153.22 313.07L151.02 312.81C148.56 314.36 145.89 312.96 142.81 315.05L154.07 313.67C154.49 312.58 155.25 311.62 156.12 311.28L157.03 310.92C157.95 310.56 156.43 312.5 156.7 312.55C156.97 312.6 157.77 312.74 158.08 312.69L163.1 311.78C164.13 311.59 165.55 311.66 166.31 311.76L169.27 309.64C166.25 310.41 164.44 310.28 165.75 309.86L166.58 309.59C169.72 308.58 170.18 307.14 171.86 308.06L170.75 309.22L171.27 309.59L177.49 306.92L180.72 305.47L180.34 305.03L177.9 306.09L174.29 307.86C174.05 307.34 173.78 306.88 173.97 306.8L174.78 306.46L177.01 305.25L179.18 304.14C179.45 304 180.43 303.86 180.64 304.08C180.85 304.3 180.87 304.68 180.84 304.98L180.9 305.23L184.18 304.19C184.73 304.01 185.57 303.26 186.14 302.76L186 302.45C185.19 302.77 183.98 304.38 182.37 303.18L186.08 301.39L186.72 300.46C186.88 300.22 187.38 300.51 188.02 300.97L186.45 302.12L186.53 302.47L188.97 301.79C188.94 300.56 188.94 299.73 189.02 299.6L190.93 300.46C191.34 300.65 191.79 299.62 191.62 298.94C192.89 297.33 195.29 295.47 197.47 295.76L199.04 295.97C199.36 296.01 199.33 295.29 199.32 294.49L202.22 293.69L202.13 292.58C202.11 292.3 203.18 292.44 203.47 292.54C204.59 292.91 205.02 290.87 205.43 291.11L206.63 291.82C206.7 291.84 207.28 291.2 207.13 290.96L206.27 289.63L209.56 287.43C209.95 287.13 210.54 286.28 211.01 286.16C211.48 286.04 212.42 286.72 212.71 287.12L213.16 287.76C213.28 287.93 212.82 288.42 212.64 288.56L207.57 292.34L205.46 293.85L200.24 297.12L197.75 298.57L194.72 300.43L193.87 299.81C193.66 299.66 193.33 300.44 193.34 300.83C191.83 301.98 189.68 302.8 187.83 303.65L183.98 305.43L180.03 307.34L172.08 310.91C171.28 311.27 170.12 311.06 169.56 310.66C169.65 310.89 169.92 311.44 169.78 311.5L168.7 311.95L161.12 313.64L157.08 314.68L151.02 315.51L147.52 315.62C147.13 315.97 146.08 316.6 145.47 316.65L140.13 317.13C137.24 317.39 134.52 317.17 131.61 317.17H128.15L123.5 316.84L119.27 316.44L112.94 315.21C111.09 314.85 108.64 315.19 107.37 313.27L106.1 314.03C105.79 314.21 105 313.32 104.79 313.08C102.95 313.2 101.32 312.63 99.46 312.13L92.07 310.18L86.66 308.33L83.29 306.52L79.85 305.13L73.07 301.94C71.84 301.36 71.27 301.14 70.17 300.15L65.43 297.85L58.07 292.65L54.45 289.57L53.62 288.64C53.41 288.4 52.63 288.64 52.14 288.68L50.7 286.54C48.97 286.19 48.14 285.31 47.02 284.11L42.81 279.57L37.87 274.37L35.16 271.08L30.51 265.23L26.45 259.26L21.93 252.12L20.12 249.09L16.64 242.49L12.04 233.08L6.79 218.65L5.59 214.56L3.73 207.21L2.89 203.16L1.25 194C0.47 189.65 0.24 185.48 0.14 181.02L0 175.09L0.13 167.38L0.86 154.27L1.66 150.03C2.15 147.44 2.15 144.92 2.6 142.41L4.15 133.8L5.04 129.11C5.39 127.26 5.79 125.06 6.48 123.4C7.42 121.16 7.88 119.65 8.06 117.12L9.72 112.9C10.72 110.35 10.92 107.66 12.15 105L18.67 90.95L21.39 86.42L23.41 82.84L25.95 78.54L27.47 76.05L32.13 68.64L34.25 66.01L38.02 62.09C38.75 61.34 39.6 60.69 39.95 59.67C40.59 57.77 41.6 56.31 43.07 55.1L45.7 52.93C46.28 51.48 46.94 50.46 48.29 49.4C49.07 48.78 50.25 47.1 51.15 46.83C53.29 46.16 54.75 45.32 56.08 43.57L55.42 43.06L56.99 41.44L56.22 43.03L56.37 43.27L56.46 43.26ZM142.13 314.63C141.22 314.36 140.5 314.54 140.21 315C140.7 315.34 141.81 315.12 142.13 314.63Z" fill="#2956E0"/>
<path d="M338.41 141.6L337.89 134.95L339.78 139.68C339.97 138.84 339.89 137.99 339.73 137.15L339.31 135.02C339.2 134.44 337.87 133.91 337.2 133.74C337.11 133.37 336.99 132.74 337.22 132.73L339.07 132.68L334.97 120.64C334.68 119.79 333.93 118.64 334.05 117.64C334.21 116.31 333.51 114.22 332.5 114.03C332.28 113.99 331.42 114.23 331.2 114.28C330.98 114.33 330.86 113.53 331.06 113.43L332.31 112.88C332.01 111.05 330.71 108.94 329.22 107.91C329.54 108.7 329.94 109.67 329.72 110.31C329.58 110.65 328.68 109.65 328.43 109.15L327.99 110.97C326.92 109.61 326.3 108.79 325.5 106.7L327.76 108.09C327.88 106.31 325.58 105.68 326.85 104.41L328.8 107.06C328.48 105.87 327.97 104.53 327.34 103.59L323.75 98.27L324.69 97.63C331.33 107.06 337.92 118.83 340.37 130L341.17 133.64C343.11 142.5 343.83 151.39 343.09 160.39L342.29 170.06L339.85 182.5L338.36 189.08C338.24 189.59 337.11 190.31 336.58 190.36L337.96 183.58L338.85 178.4L339.85 171.13L338.75 169.52C338.47 169.11 339.77 168.35 340.38 168.25L341.17 164.18L341.61 161.21L340.81 156.51C340.65 155.59 341.18 153.77 341.33 152.9C340.66 151.38 340.54 150.16 340.81 148.4L339.88 144.54C339.52 143.06 339.91 142.28 338.41 141.6Z" fill="#2956E0"/>
<path d="M323.62 221.11L320.91 222.03C321.43 222.64 321.91 223.11 321.79 223.4L321.1 225.04C320.8 225.76 319.81 226.64 319.15 226.68C318.3 226.73 317.11 226.02 316.95 225.17C316.57 223.16 317.66 221.33 317.84 219.58C317.99 218.09 317.78 217.42 318.72 216.17C319.17 215.57 320.5 214.17 321.15 214.57C321.99 215.08 323.14 215.77 323.99 215.95L326.98 210.92L330.87 204.66L334.49 195.84L335.67 192.12L337.61 192.93L335.68 198.98L333.96 203.09L332.25 203.03L333 204.32C333.17 204.62 332.6 205.37 332.53 205.72C332.22 207.21 331.66 209.14 330.84 210.06L328.96 209.71L329.28 212.02C329.34 212.47 328.34 212.99 327.84 213.25C328.35 214.67 328.17 215.5 327.13 216.64C326.09 217.78 325.28 220.57 323.64 221.12L323.62 221.11Z" fill="#2956E0"/>
<path d="M289.13 59.17L278.93 48.94C280.35 48.56 281.32 49.38 282.14 50.31L286.59 55.4L289.84 58.23C289.87 58.73 289.88 58.97 289.93 59.02L294.8 64.03L296.51 65.64L299.71 68.97L305.47 76.52L307.49 78.72C308.93 80.28 310.55 81.8 312.28 82.94C311.72 86.47 315.79 87.22 315.5 90.42C314.87 89.77 314.51 89.03 314.23 88.34C313.33 87.9 312.9 87.34 312.21 86.48L306.5 79.33L296.23 67.13L289.44 59.37L289.13 59.16V59.17Z" fill="#2956E0"/>
<path d="M184.29 3.1C184.32 3.69 184.36 4.28 184.23 4.21C184.1 4.14 183.55 3.93 183.39 3.92L171.46 3.2L161.18 2.81C163.17 1.42 165.38 2.11 167.46 2.23L171.93 2.49C173.74 2.6 175.5 2.26 177.19 2.92L184.29 3.1Z" fill="#2956E0"/>
<path d="M138.6 5.04C140.03 3.97 141.7 4.05 143.63 4.05L147.13 3.36L155.45 2.56C157.38 2.38 159.39 1.74 161.36 2.77L150.37 3.66L138.6 5.03V5.04Z" fill="#2956E0"/>
<path d="M245.57 24L243.79 22.78C244.7 22.72 245.42 23.1 245.84 23.65L246.02 24.04L248.85 24.64L250.47 25.71C251.15 25.62 252.24 25.56 252.75 25.91C253.19 26.22 253.61 27.12 253.75 27.79L256.26 30.15L256.49 30.37L257.87 30.48C258.2 30.51 258.31 31.46 258.24 32.12L256.23 30.6L255.87 30.63L245.77 24.26L245.57 24Z" fill="#2956E0"/>
<path d="M215.28 9.99L204.44 6.77L200.31 5.39L201.36 5.19C201.54 5.15 201.57 4.41 201.63 4.19L203 5.47C203.36 5.8 204.28 5.52 204.68 5.09C206.08 7.16 208.2 7.1 210.4 7.6C212.03 7.96 213.78 9.1 215.28 10V9.99Z" fill="#2956E0"/>
<path d="M243.48 22.27C241.96 22.5 238.35 20.43 236.5 18.81C237.82 18.99 239.75 19.21 240.51 19.83L243.48 22.27Z" fill="#2956E0"/>
<path d="M197.14 4.61L188.4 2.89C189.83 2.62 190.71 2.42 191.45 1.97C191.82 2.64 193.05 3.42 194.38 3.38L197.15 4.62L197.14 4.61Z" fill="#2956E0"/>
<path d="M171.94 0.9C169.4 1.66 166.83 1.42 164.2 0.86L168.75 0L171.94 0.91V0.9Z" fill="#2956E0"/>
<path d="M268.44 40.02L265.44 37.36C266.8 36.74 268.84 37.76 268.82 39.53L268.94 39.99L271.62 40.74L274.08 44.15C272.51 43.49 271.77 42.65 270.63 41.76L268.67 40.24L268.45 40.03L268.44 40.02Z" fill="#2956E0"/>
<path d="M221.1 11.95C219.21 11.74 218.37 11.42 216.68 10.77C216.02 10.61 215.88 10.27 216.66 10.17L217.9 9.65C217.84 9.67 220.25 10.55 221.1 11.95Z" fill="#2956E0"/>
<path d="M104.89 309.93L108.63 311.42C106.52 311.8 104.72 311.26 103.41 309.95C103.51 309.79 104.51 309.78 104.89 309.93Z" fill="#2956E0"/>
<path d="M225.19 14.25L222.54 12.95C222.25 13.19 222.79 12.74 223.21 12.39C223.81 12.17 224.69 12.02 225.14 12.24C225.74 12.53 225.7 14.15 225.19 14.25Z" fill="#2956E0"/>
<path d="M185.95 2.23L181.01 2.14C181.8 0.83 182.78 1.38 183.62 1.6L185.94 2.22L185.95 2.23Z" fill="#2956E0"/>
<path d="M215.44 11.98L212.03 10.82C213.3 10.51 214.84 11.08 215.6 11.65L215.9 11.88L218.61 12.2C219.02 12.25 219.66 12.93 219.74 13.4L215.67 12.1L215.44 11.98Z" fill="#2956E0"/>
<path d="M160.66 1.36H158.79C157.69 1.44 158.12 0.6 158.81 0.62L160.1 0.18C160.39 0.08 160.76 1.24 160.66 1.36Z" fill="#2956E0"/>
<path d="M137.53 5.58L134.91 5.74L137.36 4.75C137.53 4.68 138.06 4.79 138.24 4.81C138.42 4.83 137.72 5.56 137.53 5.57V5.58Z" fill="#2956E0"/>
<path d="M321.14 97.89L319.59 95.62C320.5 95.74 321.5 96.37 321.14 97.89Z" fill="#2956E0"/>
<path d="M191.19 5.36L188.35 4.48L188.59 4.2L191.01 4.66L191.19 5.36Z" fill="#2956E0"/>
<path d="M163.2 310.98L162.47 311.23C162.3 311.29 162.09 310.64 162.25 310.57L162.94 310.28L163.61 309.99C163.81 309.9 164.08 310.43 164.21 310.6C164.34 310.77 163.41 310.91 163.2 310.98Z" fill="#2956E0"/>
<path d="M231.11 16.3C230.51 16.36 229.84 16.37 229.63 16.19C229.36 15.94 229.34 15.43 229.36 14.54L231.11 16.3Z" fill="#2956E0"/>
<path d="M324.07 104.26L322.59 102.38C323.38 102.12 324.43 103.27 324.07 104.26Z" fill="#2956E0"/>
<path d="M157.98 1.32L154.98 1.36C155.86 0.82 156.81 0.67 157.98 1.32Z" fill="#2956E0"/>
<path d="M276.76 46.4L274.64 44.98C275.61 44.8 276.49 45.25 276.76 46.4Z" fill="#2956E0"/>
<path d="M318.15 93.29C317.63 93.37 316.93 92.61 317.02 91.79L318.15 93.29Z" fill="#2956E0"/>
<path d="M261.39 34.34L259.87 33.25L261.1 33.33C261.41 33.35 261.49 34.29 261.4 34.33L261.39 34.34Z" fill="#2956E0"/>
<path d="M325.93 104.36L325 102.6C325.85 102.89 326.09 103.34 325.93 104.36Z" fill="#2956E0"/>
<path d="M71.79 297.73C71.69 298.02 70.65 297.8 70.32 297.33C70.44 297.04 71.47 297.26 71.79 297.73Z" fill="#2956E0"/>
</svg>
