<svg width="321" height="115" viewBox="0 0 321 115" fill="none" xmlns="http://www.w3.org/2000/svg">
<path d="M142.02 103.823C139.6 105.873 136.2 109.003 134.47 109.693L131.05 111.053C130.79 111.153 129.96 111.513 130 111.763L130.27 113.463C130.49 113.503 128.99 114.043 128.71 113.773L127.34 112.463C126.99 112.133 125.14 112.023 125.21 112.493L125.54 114.603L122.9 114.643L123.26 112.853C123.34 112.453 121.72 112.443 121.34 112.573L120.75 114.623L116.98 113.603C116.61 112.483 116.1 111.523 115.26 111.143C114.65 110.873 113.51 111.333 112.64 111.453C111.18 111.493 109.22 109.973 108.17 108.783L104.2 104.303L101.76 101.193L95.9501 92.5126L92.1301 83.7226L88.1501 75.5926C87.3201 73.8926 85.4901 72.5126 84.2101 71.2626C80.5401 67.6726 76.0701 66.4826 71.1301 66.9626L62.7001 67.7926L58.7101 68.5626C52.8901 69.6926 46.8001 70.4726 41.6901 73.4326L36.6501 76.3626L29.3501 80.7326L25.9901 82.9926L20.7301 87.1226L13.1101 93.8826L9.66011 97.3426L5.17011 103.163L1.71011 108.833C-0.0598921 106.903 -0.579892 103.843 0.740108 101.303C4.95011 93.2326 11.6801 87.0026 18.9001 81.4426L24.7301 76.9526L28.0001 74.6526L31.6001 72.6226L40.4001 67.9326L45.7001 65.5826L49.8501 64.3726L54.4701 63.8726C61.5401 62.1026 68.3401 60.8226 75.8001 61.3026C77.3001 61.4026 78.2901 61.6826 79.5501 62.2526C82.0501 63.3726 84.9101 64.1126 86.9201 66.1126C89.2501 68.4326 91.4601 70.9226 92.7201 73.8726L96.4101 82.4726L100.13 89.7926L106.82 98.9426C108.69 101.503 113.62 106.203 115.85 107.023L119.62 108.423C121.85 109.253 125.05 109.433 127.34 108.693L130.84 107.563L134.61 105.813L142.89 99.6826L146.45 96.5826L149.07 95.0426L153.69 92.1426L156.28 90.2226L159.52 88.2226L168.1 82.8126C170.83 81.0926 173.56 79.4726 176.53 78.3026C178.41 76.2226 181.4 76.6126 184.92 73.5526C186 72.6126 188.27 72.2926 189.73 71.9526C191.56 70.0326 193.28 68.9026 196.27 68.3126L196.83 70.8926L186.25 75.7326L181.04 78.6826L177.7 80.4926L172.91 83.1326L169.7 85.0426L161.7 90.0726L155.66 93.8526L148.62 98.5026L145.15 101.073L141.96 103.783L142.02 103.823Z" fill="#2956E0"/>
<path d="M215.23 64.3726L211.84 62.9726L212.51 60.9026C212.64 60.4926 213.81 60.5826 214.32 60.6926C215.15 59.6526 216.24 59.3226 217.69 59.3526L223.14 56.9026L225.48 57.1526L229.17 54.3926L230.29 57.2526L230.9 57.2126L230.47 54.2926L233.24 53.8026L240.62 50.6726L245.74 48.7126L247.41 47.9826C247.86 47.7826 248.72 49.0526 248.88 49.3026C250.45 46.7026 253.83 45.0326 256.29 45.0126C257.02 45.0126 257.85 46.0526 258.51 46.9726L254.49 48.9026L249.89 51.1626L248.12 52.2626C247.4 52.7126 245.17 52.6026 244.45 53.1026C243.56 53.7226 242.26 54.6126 241.19 54.6126C241.49 52.9426 242.65 52.2926 244.04 51.5726C239.72 49.8726 240.59 58.4026 234.15 56.6326C233.33 57.6826 232.09 58.1226 230.95 58.0526C230.35 58.4726 229.25 59.2426 228.47 59.5426L221.45 62.2126C219.37 63.0026 217.41 63.2826 215.2 64.3826L215.23 64.3726Z" fill="#2956E0"/>
<path d="M209.72 65.9326C207.93 69.3526 203.1 66.6326 197.9 70.4326C197.87 68.2426 198.48 67.0026 199.97 66.0126C201.46 65.0226 202.97 65.0626 204.61 65.4526C205.19 64.5326 206.38 63.2726 207.39 63.0226L210.77 62.2026C210.84 62.9226 210.77 64.1126 211.08 64.3326L212.68 65.4326L209.72 65.9326Z" fill="#2956E0"/>
<path d="M263.5 42.8926C262.83 42.9226 263.26 40.8326 264.1 40.4726C265.52 39.8626 267.54 39.8326 268.85 39.7126C270.34 38.5526 271.83 37.5026 273.39 36.7326C273.98 36.1126 274.91 35.4326 275.78 34.9426L280.96 32.0226C281.33 31.9626 281.9 33.2226 281.88 33.7526C281.82 35.7226 279.01 33.8426 276.72 37.6926C276.41 38.2126 275.1 38.7426 274.62 39.0126C272.3 40.3626 270.08 41.1826 267.56 41.8926C266.44 42.2026 265.46 42.8026 263.49 42.8826L263.5 42.8926Z" fill="#2956E0"/>
<path d="M308.23 15.5526L303.54 19.2726C303.27 18.9226 302.7 17.4326 303.07 17.0926L304.54 15.7226L308.23 12.4626C310.02 10.8726 311.34 9.66261 312.77 7.52261C313.43 6.53261 315.64 5.72261 316.77 5.06261L319.32 0.0526054C319.47 -0.247395 320.93 0.822605 320.75 1.07261L318.23 4.69261L316.41 7.24261C315.31 8.79261 313.53 10.2826 312.11 11.6926L308.23 15.5726V15.5526Z" fill="#2956E0"/>
<path d="M291.48 28.5426L292.08 24.2126C295.09 24.1826 296.94 20.0226 298.36 21.5126C299.2 22.3926 297.76 23.8926 297.05 24.4226L291.49 28.5326L291.48 28.5426Z" fill="#2956E0"/>
<path d="M286.12 31.7226C285.45 32.1026 284.45 32.6926 283.94 32.5826C283.34 32.4526 282.26 31.3726 282.05 30.8826C286.75 30.8226 286.97 27.3826 288.53 27.3926C289.31 27.3926 290.54 28.0726 291.14 28.8626L286.12 31.7126V31.7226Z" fill="#2956E0"/>
<path d="M259.77 46.0526C259.32 45.7526 258.19 44.6326 257.81 44.1726C258.15 43.7226 259.17 43.1426 259.67 43.0926C260.17 43.0426 260.89 43.8826 260.97 44.3926C261.05 44.9026 260.22 46.3526 259.77 46.0526Z" fill="#2956E0"/>
<path d="M299.59 21.6426C299 21.4626 299.64 19.3126 300.24 19.4726C301.59 19.8326 300.98 22.0726 299.59 21.6426Z" fill="#2956E0"/>
</svg>
