<svg width="573" height="85" viewBox="0 0 573 85" fill="none" xmlns="http://www.w3.org/2000/svg">
<path d="M31.2007 72.5499L23.2907 74.1499L15.8407 75.5599L6.51073 77.9299C5.42073 78.2099 3.57073 79.6999 2.27073 78.7999C-0.609269 76.7999 -0.939269 71.9699 2.38073 70.0599C3.53073 69.3999 6.16073 70.3499 7.45073 70.9999C19.0307 69.9799 30.6207 67.7399 42.0907 65.1699C43.3007 65.0599 45.0907 65.0599 46.1007 64.7899L51.1007 63.4299L74.7207 58.4699L85.8607 56.0499L127.731 47.4599L153.821 42.7799L167.701 40.4999L179.371 38.1799L184.161 37.9699C184.211 41.1599 181.171 40.0799 179.801 40.4899L174.271 42.1499L161.551 44.0499L157.181 44.8199L139.401 47.8199C136.491 48.3099 133.611 49.0299 130.881 48.9999L124.651 50.8299L116.841 52.6999L112.181 54.2699L105.781 55.9299L78.7307 61.8099L68.1607 64.3499L50.2107 68.3299L44.1607 69.6999L31.1907 72.5299L31.2007 72.5499Z" fill="#2956E0"/>
<path d="M308.181 75.1699L294.301 78.3199L284.781 80.5699L276.151 82.7399C274.291 83.2099 272.231 85.3799 270.111 84.6299C268.511 84.0599 267.781 80.0999 269.071 79.0899L272.651 76.2899C275.271 76.7099 277.181 76.7099 279.481 76.3399L290.231 74.5899L295.301 73.5499L310.851 69.9399L345.421 62.4699C346.671 62.1999 348.001 62.6099 348.961 63.1499C349.431 62.6099 350.851 61.4599 351.621 61.2999L367.451 57.9999L394.621 53.2899L413.681 50.2699L443.481 45.9699C444.091 45.8799 445.281 45.7899 445.721 45.9499C446.271 46.1499 446.671 47.7899 446.521 47.7499L439.641 49.1499L435.171 49.3999L429.001 49.9399L424.421 50.6199L420.551 51.2099L413.921 52.3199L405.501 53.9299L390.061 56.8399L384.381 57.8099C377.201 59.0299 370.491 60.1599 363.571 62.3499L347.951 65.8399L343.421 66.8999L331.731 69.9199L308.191 75.1599L308.181 75.1699Z" fill="#2956E0"/>
<path d="M462.551 10.1199L455.781 10.7399C454.281 10.8799 452.531 10.4499 451.111 9.9499L445.661 11.1199C444.171 11.4399 442.731 11.0099 441.421 10.3299L440.121 11.4599C439.841 11.6999 438.721 11.2499 438.671 10.8799C438.611 10.3799 439.431 9.4199 440.011 9.3799L452.391 8.4399L463.561 7.7199L472.131 7.3599L488.091 6.2399L501.331 5.1799L516.941 4.0499C517.521 3.0599 518.441 2.0899 519.501 1.4999C523.621 -0.780101 529.031 -0.670101 531.561 3.2899L530.351 6.8499C530.131 7.4899 529.031 8.4899 528.381 8.3999L521.981 7.5099C520.631 7.3199 518.411 5.5799 517.191 5.9999C514.541 6.8999 512.431 6.9999 510.021 7.1499L499.601 7.8299C498.191 7.9199 497.441 8.0199 495.961 8.3499C490.401 9.5899 485.191 7.4199 479.891 9.6299C479.121 9.3099 477.451 8.6699 476.631 8.9899C473.841 10.0799 469.411 8.3199 467.011 8.9499L462.541 10.1299L462.551 10.1199Z" fill="#2956E0"/>
<path d="M474.901 44.6899C473.781 45.5599 470.821 45.3399 469.261 45.5199L454.191 47.2599L448.561 47.6499C448.311 47.6699 447.511 46.5299 447.711 46.3799L449.011 45.3599L463.601 43.6099C464.431 44.0799 465.391 44.0299 466.041 43.2299L495.551 40.5799L512.291 39.8399L525.481 39.5899C524.701 42.0499 523.631 41.9799 521.731 42.1499C520.691 42.2499 518.741 42.9599 518.011 42.4399L516.441 41.3199C516.141 41.1099 515.831 41.9499 515.541 42.6599L503.261 43.1799C500.241 43.3099 497.141 43.9099 493.921 43.4899C491.351 43.1599 489.571 43.8599 487.021 44.4399C484.471 45.0199 480.781 44.8299 478.191 44.8899C477.891 44.3399 477.091 42.9799 476.761 43.2399L474.901 44.6899Z" fill="#2956E0"/>
<path d="M544.511 42.2699L540.461 42.0499C536.831 41.8499 533.761 41.6499 530.151 42.6599C528.801 43.0399 526.201 42.9299 525.501 42.4299L526.041 39.1299L551.621 39.2699L563.571 39.8899C568.931 40.1699 567.941 37.4099 571.621 38.1799C572.381 38.3399 573.141 40.2599 572.631 40.9099C571.521 42.3499 570.931 43.6999 570.741 45.7899C570.291 46.4099 567.491 46.4899 566.681 45.7899C564.801 44.1999 562.661 43.6999 560.191 43.2199L553.771 41.9899C553.521 41.9399 552.741 41.3499 552.531 41.2099C552.321 41.0699 551.601 42.1499 551.351 42.1599L544.511 42.2599V42.2699Z" fill="#2956E0"/>
<path d="M221.371 33.2799C219.441 34.4499 216.431 34.8099 215.621 32.6399L220.631 31.4699L241.321 28.4799L246.561 27.8299C247.351 27.7299 248.841 28.3799 249.421 29.0699C244.861 31.6099 240.431 31.3499 235.971 30.6099C234.741 31.4899 232.981 32.0099 231.411 31.9999L221.371 33.2899V33.2799Z" fill="#2956E0"/>
<path d="M304.141 22.1099C303.761 23.5999 302.221 23.9899 300.631 23.5499C300.991 21.6099 302.681 21.1299 304.491 20.9999L314.071 20.2999L319.061 19.5799C317.691 23.2099 314.661 22.5399 311.841 22.4899C309.021 22.4399 306.261 23.5199 304.141 22.1199V22.1099Z" fill="#2956E0"/>
<path d="M258.991 28.5599C254.041 29.2099 250.491 30.7499 249.671 27.4999L256.511 26.6699L264.401 25.5899C263.921 28.9399 261.701 28.2099 258.991 28.5599Z" fill="#2956E0"/>
<path d="M392.381 12.8899L392.051 14.5399C391.981 14.8899 391.061 15.3599 390.681 15.3999L385.611 15.9199C385.211 15.9599 384.151 15.7099 383.801 15.5699C383.331 15.3899 384.231 13.4899 384.821 13.4499L397.941 12.4399C398.211 15.3099 394.831 15.5199 393.971 14.5599L392.391 12.8899H392.381Z" fill="#2956E0"/>
<path d="M287.531 24.7799C286.381 25.3999 284.291 25.7599 283.341 25.3899L285.371 23.1099L295.731 22.2899L290.761 25.2299C290.031 25.6599 287.971 25.0599 287.521 24.7799H287.531Z" fill="#2956E0"/>
<path d="M363.221 17.2099C362.561 18.7099 359.311 16.3599 358.631 17.0999L356.981 18.8699L350.531 16.9899L361.411 15.6199C361.771 15.5699 362.581 15.6199 362.861 15.6799C363.271 15.7799 363.411 16.8299 363.241 17.2199L363.221 17.2099Z" fill="#2956E0"/>
<path d="M276.791 24.4199C274.761 28.0799 270.751 28.9299 267.701 25.4299L276.791 24.4199Z" fill="#2956E0"/>
<path d="M424.151 12.1999L422.741 12.5299C422.341 12.6199 421.831 11.9599 421.321 11.1499L425.291 10.5999L431.071 10.0099C429.101 13.3199 426.791 13.1599 424.151 12.1999Z" fill="#2956E0"/>
<path d="M373.371 15.7099C369.271 17.7099 365.351 18.6199 365.191 15.8299L370.661 14.5799C371.411 14.4099 372.861 15.0499 373.381 15.7099H373.371Z" fill="#2956E0"/>
<path d="M329.101 20.1699L323.141 21.0399C324.371 18.3399 326.621 18.9699 328.761 18.7599L332.871 18.3499C332.271 21.0399 330.571 19.9599 329.101 20.1699Z" fill="#2956E0"/>
<path d="M417.931 13.1599L412.441 12.2799C414.021 10.8499 415.991 10.7799 417.981 11.3099L419.001 11.2399C419.221 11.2299 419.401 11.8499 419.361 12.0699C419.321 12.2899 418.151 13.1899 417.931 13.1499V13.1599Z" fill="#2956E0"/>
<path d="M405.821 12.7099C404.661 14.2999 403.791 12.2199 400.861 14.2699C400.531 14.4999 399.971 12.3799 400.361 12.3099C401.691 12.0799 404.411 12.2699 405.811 12.7099H405.821Z" fill="#2956E0"/>
<path d="M267.481 26.0599L266.221 27.5199C266.011 27.7599 265.101 27.3999 264.771 27.2099L267.661 24.7799L267.481 26.0599Z" fill="#2956E0"/>
<path d="M346.341 17.7699C345.551 18.3799 344.381 18.8399 342.961 18.9199C343.421 17.5199 344.971 17.1999 346.341 17.7699Z" fill="#2956E0"/>
<path d="M437.731 10.2799C436.201 11.4799 434.661 11.1099 433.221 10.2699H437.731V10.2799Z" fill="#2956E0"/>
</svg>
