<svg width="348" height="181" viewBox="0 0 348 181" fill="none" xmlns="http://www.w3.org/2000/svg">
<path d="M68.329 174.32L68.519 173.89C68.569 173.78 68.979 173.92 69.109 173.94L73.749 174.71L77.949 175.45C78.679 175.93 79.629 176.26 80.509 175.58L82.399 176.01C82.519 176.04 82.679 176.47 82.579 176.53L81.859 177.02L84.239 177.53L83.669 176.39C83.629 176.33 84.369 176.17 84.479 176.35L84.959 177.12L88.719 177.97C88.839 178.17 88.719 177.28 88.509 177.23L87.629 177.05C89.019 175.74 88.749 178.65 91.919 178.15C92.589 178.05 93.259 177.72 93.579 177.35C94.849 178.78 97.389 178.56 99.459 177.99C100.229 178.88 101.309 179.3 102.349 178.82C103.309 179.17 104.299 179.06 105.209 178.65C106.559 179.42 107.879 179.29 109.349 179.02L111.929 179.06L112.009 179.62C112.029 179.75 112.479 180.03 112.529 179.91L112.889 179.17C113.699 178.9 115.019 179.11 115.899 179.53L119.309 179.32C119.769 179.29 120.469 179.13 120.909 179.27L122.489 179.77C123.479 178.95 124.689 179.1 124.699 179.13L124.879 179.81C126.829 178.55 127.949 180.24 129.789 178.99L132.659 179.74C133.469 179.4 134.179 179.22 135.039 179.19L138.349 179.08L139.469 179.06L142.359 178.91L144.459 178.89C145.199 178.67 145.909 178.52 146.629 178.49L152.669 178.31C153.229 178.29 153.739 178.25 154.229 178.17C154.939 178.19 155.729 178.22 156.449 177.99C157.519 177.65 158.469 177.88 159.459 177.78L161.759 177.55L163.889 177.33L168.559 176.94L172.319 176.44C172.489 176.42 172.949 176.54 173.009 176.67L173.249 177.24L174.149 176.3C174.329 176.11 174.899 176.56 175.189 176.79C177.389 175.86 179.689 175.54 182.029 175.26L186.529 174.71L188.189 174.5L190.919 173.95C191.639 173.8 191.709 173.86 192.339 173.73L196.269 172.89L200.829 171.9L202.849 171.45L208.599 170.05L212.249 169.12L214.839 168.43L219.969 166.95L226.659 164.93L235.609 162.26L238.139 161.5L243.209 159.7L245.709 158.84L248.569 157.86C247.819 159.96 244.259 159.7 240.909 161.59C240.259 161.96 239.989 162.4 239.159 162.01L237.879 162.39V162.91C237.879 163.07 237.389 163.27 237.219 163.27C234.949 163.22 231.289 164.15 230.029 165.45C229.459 165.4 228.559 165.37 227.939 165.54L225.659 166.17C225.519 166.45 225.119 167.26 224.829 167.16C224.499 167.05 224.239 166.79 223.639 166.21L222.379 167.67C221.759 168.39 219.769 169 219.179 168.07L216.959 168.95C215.749 168.98 214.899 169.23 213.829 169.73L211.799 170.26C210.309 171.68 208.769 170.6 208.709 170.71L208.459 171.26C207.669 170.97 206.829 171.68 206.269 172.18C204.979 172.05 203.579 172.1 202.359 172.52L200.249 173.25C199.679 173.45 199.109 173.66 198.439 173.81L194.419 174.72C192.889 175.07 191.609 175.61 190.049 175.7L185.329 175.98C183.199 176.85 180.969 177.14 178.869 177.04C177.439 177.62 175.979 177.69 174.519 177.8L171.349 178.05L169.509 178.3L166.479 178.73L163.119 178.88L157.999 179.41L153.789 179.51L151.259 179.98C149.099 179.94 147.229 180.34 145.149 180.42L142.389 180.53L139.639 180.62L136.219 180.79L129.469 180.96L123.019 180.92L114.819 180.89L112.299 180.67L107.679 180.57L104.469 180.48L99.639 180.26C99.349 180.39 98.659 180.61 98.379 180.52L96.169 179.87L91.149 179.71L88.539 179.36L84.149 178.97L80.129 178.44L70.249 177.16L67.809 176.78C60.969 175.71 54.399 174.11 47.799 172.09L46.149 171.46L39.499 169.13L35.879 167.6L25.589 162.57L19.059 158.38L15.689 155.78C15.449 155.59 15.329 154.94 15.339 154.6C14.819 154.54 13.789 154.3 13.389 153.88L10.469 150.79C9.88896 150.18 10.139 148.26 8.97896 148.01C8.22896 147.85 7.54896 147.66 7.15896 147.03L5.53896 144.46L4.41896 142.81C4.82896 141.97 4.74896 141.4 4.33896 140.66L3.98896 140.04C3.89896 139.88 3.55896 140.19 3.28896 140.43L2.43896 138.72C2.38896 138.63 2.41896 138.17 2.50896 138.19L3.17896 138.4C2.92896 136.59 1.52896 134.92 1.38896 132.98C1.30896 131.92 1.35896 130.93 1.08896 129.85L0.328962 126.83L0.0289622 122.63C-0.0210378 121.88 -0.00103778 121.24 0.0489622 120.47L0.278962 117.16L1.70896 109.83L3.29896 104.05L3.84896 101.77C3.97896 101.23 4.46896 100.45 4.78896 100.01C4.96896 98.67 5.47896 97.81 6.22896 96.75C6.97896 95.69 7.44896 94.38 7.99896 93.16C8.27896 92.53 9.09896 92.05 9.44896 91.57L13.109 86.5L16.949 81.95L20.079 78.92L21.759 77.51L23.399 76.08C24.669 74.97 25.959 73.56 27.499 72.86C28.379 72.46 28.779 72.32 29.319 71.51C29.919 70.61 31.359 70.23 32.129 69.59C34.439 67.67 36.779 66.18 39.309 64.67L41.219 63.53L44.669 61.6L47.029 60.37L54.079 57.24L61.459 54.11C71.739 49.75 82.099 46.15 93.149 44.24L99.929 43.07C102.019 42.71 104.199 42.34 106.359 42.37C107.049 42.37 107.389 42.5 107.969 42.15L119.989 41.65L125.639 41.84L131.629 42.16L134.619 42.4C135.919 42.5 137.149 42.73 138.319 43.16C139.019 43.11 139.999 43.1 140.749 43.22L143.149 43.62L147.049 44.24L151.539 45.46C152.049 45.46 152.779 45.53 153.309 45.65L155.599 46.17C159.459 47.05 163.119 47.89 166.559 49.94C167.769 50.66 169.549 51.08 170.999 51.56C171.499 51.72 172.119 52.81 172.009 53.29C171.729 54.47 170.379 54.55 169.449 54.16L165.489 52.47C163.689 51.7 162.109 50.87 160.199 50.33L154.929 48.84L150.239 47.86L144.699 46.68L141.419 46.1L136.839 45.42L122.669 44.28H120.209L117.069 44.32L114.559 44.4L104.269 45.1L100.899 45.4L98.729 45.77L92.699 46.64L88.049 47.78L83.579 48.9L78.979 50.2L75.429 51.29L70.159 53L66.009 54.66L58.189 57.81L52.259 60.53L48.599 62.1L46.029 63.33L42.179 65.36L39.069 67.31L34.559 70.21L29.229 73.86L26.279 76.15L23.739 78.28L19.079 82.79L17.019 85.04L15.259 87.13L10.549 93.43C9.19896 95.23 8.10896 97.01 7.26896 99.08L5.11896 104.35C4.14896 106.73 3.16896 109.11 2.78896 111.65L2.14896 115.95C1.74896 118.63 1.45896 121.27 1.78896 123.92L2.28896 128.01L3.40896 132.59C4.29896 136.25 5.87896 139.6 8.15896 142.66L11.099 146.61L14.549 150.02C15.219 150.68 15.729 151.14 15.939 152.03C16.259 152.03 17.069 152.28 17.329 152.57L18.839 154.31C18.949 154.44 19.719 154.44 19.709 154.62L19.679 155.37L19.649 156.08C19.649 156.24 20.309 156.27 20.249 156.19L20.069 155.59C20.029 155.44 20.269 155.05 20.399 155.13L21.069 155.55C21.649 155.92 22.599 156.46 22.819 157.03C22.949 157.37 23.009 158.08 23.249 158.05L24.279 157.93C24.339 158.1 24.449 158.54 24.609 158.55L25.699 158.62C26.639 161.04 28.109 159.19 29.159 161.04C29.519 161.67 31.219 162.53 32.449 162.39L34.959 163.58L34.989 164.08C34.989 164.19 35.339 164.12 35.489 164.11L36.369 164.04C36.549 164.02 36.529 164.54 36.469 164.85C36.569 164.79 37.059 164.49 37.249 164.56L38.839 165.15L38.799 166.05C38.779 166.45 40.249 165.99 40.279 166.05L40.669 166.77L41.629 166.49C41.869 166.42 42.319 166.71 42.369 166.87C42.499 167.11 42.609 167.3 42.579 167.25L44.689 167.83H45.829C46.079 167.82 45.909 168.44 45.809 168.91L49.019 169.71C49.369 169.52 50.109 169.25 50.429 169.42C50.819 169.63 51.159 169.94 51.179 170.17C51.199 170.4 50.709 170.92 50.469 170.84L47.859 169.92L46.169 169.44L44.109 168.56C43.999 168.51 43.569 168.7 43.459 168.74C43.349 168.78 43.709 169.04 43.849 169.09L49.789 171.21L54.129 172.39C54.259 172.43 54.439 171.97 54.309 171.93C53.489 171.71 52.039 171.25 51.089 170.78L52.659 169.97L54.879 171.01L54.929 171.7C54.939 171.89 55.649 171.79 55.819 171.7L56.299 171.46C56.439 171.39 56.569 171.63 56.639 171.81C56.369 172.26 56.249 172.46 56.359 172.27C55.409 172.27 55.289 172.27 54.709 172.39C55.689 173.41 56.729 172.94 57.669 172.36L57.789 172.28L57.529 172.01C57.459 171.94 58.109 171.63 58.179 171.7L59.109 172.76L59.939 172.19C59.519 172.48 61.959 172.45 63.179 173.06L61.919 173.6C62.289 174.02 63.429 174.34 63.799 174.02L63.939 172.92L65.989 173.61C66.159 173.67 66.499 174.21 66.339 174.27L65.369 174.65L66.579 174.61C66.789 174.61 67.219 174.99 67.399 174.89L68.209 174.47L68.259 174.29L68.329 174.32ZM33.669 164.52L30.209 162.36L26.269 160.2C26.589 161.41 27.789 161.82 28.749 162.28C30.429 163.1 31.889 163.96 33.679 164.51L33.669 164.52ZM42.599 168.2C42.449 168.23 42.809 168.69 42.949 168.63L43.359 168.48C43.449 168.44 43.309 168.05 43.209 168.07L42.589 168.2H42.599ZM58.039 172.53L57.929 172.56L57.019 173.29L60.669 173.6C60.569 173.1 60.519 172.9 60.389 172.94L59.809 173.11C59.069 173.32 58.229 173.16 58.039 172.54V172.53ZM64.329 174.29C64.219 174.34 64.489 174.64 64.619 174.61L64.989 174.52C65.119 174.49 65.039 173.99 64.919 174.04L64.339 174.28L64.329 174.29ZM68.459 174.6V175.42L71.759 175.87L76.929 176.42L78.379 176.72C79.489 176.95 80.569 177.28 81.749 176.7C80.619 176.29 79.569 176.25 78.349 176.22C77.349 175.92 76.349 175.77 75.269 175.81C74.119 175.14 72.749 174.93 71.429 175.35C70.459 174.91 69.389 174.5 68.559 174.32L68.449 174.6H68.459Z" fill="#2956E0"/>
<path d="M343.649 94.73C343.639 95.41 343.469 96.2 343.029 96.81L339.979 100.98L339.259 102.02L338.929 102.38C338.849 102.46 338.679 102.24 338.449 102.01C337.689 102.67 337.259 103.73 337.249 104.77C336.749 104.84 335.989 104.91 335.839 105.17C335.689 105.43 335.559 105.95 335.409 106.46L335.009 106.41C334.889 106.4 334.509 106.31 334.539 106.41L334.819 107.17C333.709 107.8 332.879 108.64 332.029 109.66L330.879 111.04L327.739 113.76C327.629 113.85 327.049 114.04 327.059 113.9L327.079 113.31L331.139 109.33L335.429 104.29L336.849 102.48L340.709 96.58C341.439 95.47 341.879 94.41 342.339 93.12L343.469 89.94C345.369 84.59 345.489 76.14 344.289 70.49L343.679 67.6L342.339 62.48C342.119 61.63 341.909 60.72 341.499 59.96C340.879 58.83 340.759 57.74 340.189 56.59L337.879 51.88C337.059 50.21 336.319 48.82 335.289 47.29L331.679 41.95L328.769 38.5C327.739 37.28 326.899 36.23 325.589 35.24L323.349 32.64C322.419 31.57 320.679 30.92 319.869 29.82C319.259 28.98 318.969 28.96 318.149 28.33L315.769 26.5L310.499 22.62C309.939 22.21 309.369 21.97 309.019 21.45C308.429 21.23 307.779 20.9 307.289 20.53L303.579 18.19L299.539 15.93L297.119 14.43C295.679 13.54 294.059 13.73 292.119 12.54C291.809 12.1 291.219 11.17 290.819 11.02L289.929 11.49C290.129 11.39 287.739 11.11 287.239 10.61C284.829 8.21 283.149 10.12 282.459 8.03L281.289 8.15C280.239 7.24 277.959 6.7 276.769 6.6L276.029 6.05L274.949 6.09C273.969 5.69 272.049 5.3 270.779 5.02L267.459 4.28L264.859 3.74L262.779 3.35L256.909 2.73L254.859 2.54L245.409 2.47L243.399 2.77C241.479 3.05 239.389 3.53 237.769 4.32C235.179 5.58 234.179 7.9 234.559 10.53L234.859 12.61C234.909 12.93 234.929 13.56 234.719 13.74C234.509 13.92 233.819 13.92 233.609 13.74C233.399 13.56 233.379 12.87 233.349 12.55C231.439 9.71 231.659 6.1 234.469 3.86C235.359 3.15 236.599 2.39 237.739 2.05L242.639 0.59L244.699 0.43L247.389 0L247.279 0.47C247.259 0.54 247.249 0.84 247.309 0.8L247.849 0.41L249.809 0.22L252.839 0.09L255.399 0.05C256.219 0.04 257.569 0.21 258.359 0.37L262.419 1.18L268.609 2.34L272.409 3.2L277.299 4.82L282.469 6.22C283.189 6.41 283.589 6.47 284.299 6.8L288.099 8.6L292.079 10.27L294.369 11.34L297.919 12.88C299.099 13.39 301.199 14.81 303.569 14.99L304.599 16.65C304.669 16.77 305.089 16.89 305.149 16.78L305.519 16.08L307.999 17.62C308.479 17.92 308.569 18.27 308.719 18.84C309.009 19.89 310.689 20.36 311.669 19.98L313.569 21.27L316.159 23.21L318.399 24.65C318.419 26.33 319.489 27.24 320.809 28.1L323.169 29.65C323.729 30.02 324.699 31.06 325.099 31.62C325.799 32.6 326.209 33.07 327.139 33.8C327.959 34.44 328.969 35.49 329.639 36.32C330.269 37.09 330.569 37.74 331.499 38.12L331.979 39.82C331.999 39.89 332.429 39.68 332.389 39.62L332.169 39.25L332.599 38.92C332.709 38.84 333.269 39.12 333.209 39.24L332.799 40.06L335.629 44.15L336.789 46.01L339.419 50.47L339.879 49.91C339.949 49.83 340.329 49.85 340.289 49.95L340.029 50.6C339.919 50.86 340.089 51.45 340.219 51.78L341.689 55.53L342.929 58.59C343.009 58.8 343.529 58.95 343.739 58.95H344.149L344.789 61.23L344.419 61.71L344.809 61.54L345.369 62.34C345.549 62.6 345.249 63.4 344.979 63.88C347.259 65.86 345.489 67.42 345.679 68.01C345.789 68.35 346.249 68.75 346.709 69.11L345.559 70.07L347.149 71C346.829 72.13 346.869 73.23 347.359 74L346.669 75.06C346.489 75.33 347.059 75.96 347.569 76.05C347.969 76.82 347.539 77.81 346.879 78.39C347.339 80.94 345.649 81.57 346.909 82.11L346.579 85.11L346.209 87.74L345.559 90.42L344.949 92.41C344.679 93.3 344.299 94.18 343.709 94.64L343.629 94.77L343.649 94.73ZM294.499 11.96L294.199 12.63C294.139 12.76 294.779 12.97 294.799 12.83L294.869 12.26C294.879 12.17 294.529 11.89 294.499 11.96ZM317.229 24.77L316.209 23.71C316.189 24.14 316.239 24.56 316.439 24.61L317.239 24.78L317.229 24.77ZM343.439 94.35C343.439 94.35 343.439 93.99 343.439 93.91C343.439 93.83 343.319 93.84 343.269 93.9L342.869 94.37C342.819 94.43 342.749 94.79 342.739 94.87C342.729 94.95 342.999 95.04 343.049 94.97L343.359 94.49L343.449 94.35H343.439Z" fill="#2956E0"/>
<path d="M249.929 157.26L252.369 156.36L257.589 154.4L261.859 152.74L263.529 151.94L264.989 151.3L271.829 148.23L273.729 147.3L275.949 146.67C275.089 148.23 273.699 148.18 272.499 148.72L268.419 150.56L266.449 151.39L264.689 152.3L261.209 153.73L259.109 154.65L248.739 158.68C248.739 157.81 249.259 157.51 249.949 157.26H249.929Z" fill="#2956E0"/>
<path d="M277.979 146.18L277.159 146.72C276.949 146.86 276.519 146.49 276.289 146.25L281.309 143.65L283.969 142.29L288.599 140.09C288.559 140.83 288.329 140.91 287.889 141.16C286.569 141.93 285.319 142.63 283.839 143.04C282.839 143.83 281.669 144.61 280.339 145.11L277.959 146.19L277.979 146.18Z" fill="#2956E0"/>
<path d="M311.769 126.67C311.399 126.91 311.059 128.18 309.999 127.25L312.669 125.25L314.609 123.85L317.699 121.59C318.329 120.95 319.109 120.39 319.859 120.05L321.979 117.91C322.059 119.09 321.429 119.67 320.609 120.16L319.449 120.86L318.129 122.03L315.519 124.3L313.629 125.44L311.789 126.66L311.769 126.67Z" fill="#2956E0"/>
<path d="M295.279 136.59C295.049 136.37 295.699 135.86 296.039 135.66L298.459 134.23L301.409 132.76C301.539 134.26 300.269 133.97 299.749 134.3L296.899 136.1C296.569 136.31 295.849 136.94 295.289 136.58L295.279 136.59Z" fill="#2956E0"/>
<path d="M324.029 117.26L322.789 118.16C322.859 116.33 324.549 116.02 325.519 115.13C325.989 114.69 326.299 114.39 326.979 114.18C326.209 115.57 325.239 116.38 324.039 117.26H324.029Z" fill="#2956E0"/>
<path d="M305.399 130.47C305.329 131.59 304.329 132.04 303.309 132.34C302.809 132.49 302.639 132.65 301.939 132.47L306.719 129.28L307.939 128.47C308.089 128.82 308.309 129.22 308.159 129.31L307.409 129.76C306.689 130.19 306.139 130.49 305.409 130.47H305.399Z" fill="#2956E0"/>
<path d="M293.009 137.87C292.369 138.97 290.449 140.05 289.189 139.97L291.379 138.42L294.119 136.84L294.579 136.57C294.689 136.51 294.749 137.13 294.749 137.36C294.729 137.84 293.459 137.93 293.009 137.86V137.87Z" fill="#2956E0"/>
<path d="M309.749 128.28L308.839 128.8C308.669 128.9 308.189 128.43 308.179 128.38L309.239 127.68C309.359 127.6 309.709 127.53 309.849 127.53C310.039 127.53 309.929 128.18 309.749 128.28Z" fill="#2956E0"/>
<path d="M86.269 176.79C86.379 176.68 86.899 176.41 86.939 176.51C86.999 176.67 87.049 177.03 86.889 177.09C86.729 177.15 86.139 176.91 86.269 176.79Z" fill="#2956E0"/>
</svg>
