<svg width="93" height="189" viewBox="0 0 93 189" fill="none" xmlns="http://www.w3.org/2000/svg">
<path d="M92.1731 0V2.81L78.3831 6.14L63.2031 12.91C61.6131 14.65 59.6131 15.79 57.6631 15.98L38.5331 31.37L32.0631 38.15L23.7431 48.4L20.3031 53.39L15.7331 60.99C15.2631 61.33 14.4731 62.17 14.2231 62.78L13.1831 65.37C12.1131 64.69 11.9531 64.59 13.2631 65.41C12.5931 67.1 12.0831 67.94 11.2231 69.11L7.5531 79.36L3.5431 92.75C2.2531 97.04 2.1531 101.3 2.5131 105.78L3.7931 121.49C3.8131 121.77 4.4031 122.78 4.1431 122.79L2.8131 122.86L5.2931 125.65C5.3831 125.93 5.6031 127.09 5.3331 127.08C5.0631 127.07 4.1931 127.04 4.4331 127.05L7.3231 132.55L9.7831 137.34C14.9631 147.42 21.3431 154.59 29.3631 162.39C29.4231 163.45 30.0831 165.35 30.8431 165.61C31.4931 165.84 32.7631 165.56 33.9831 165.45C35.2031 165.34 35.9131 168.22 35.5531 169.83L38.7331 169.02L43.3231 172.32C45.6531 173.51 46.7931 174.65 46.7031 177.59L50.0731 178.19C50.3131 177.72 50.8531 176.5 51.2531 176.63L53.3431 177.31L61.2431 180.27C61.5931 180.4 60.9231 181.5 60.5331 181.53L58.5831 181.65L61.4931 184.57C60.1831 184.67 57.2031 184.5 55.9331 184.16C56.8731 182.24 57.1931 181.39 56.3131 180.1C55.4331 178.81 53.5731 178.87 52.8431 179.77L56.1431 182.23L49.8931 180.41C47.8431 179.81 46.0531 179.12 44.3231 177.64C30.8731 170.33 19.4731 160.41 11.0031 147.53C10.9831 146.99 10.9231 145.71 10.5531 145.69L8.9531 145.6L7.9931 141.13C2.7131 136.02 -0.1069 125.16 0.00310039 117.74L0.1431 108.49L0.3831 95.25L1.6331 89.86L9.5631 68.17L13.0531 61.71C16.6231 55.08 20.4331 48.99 25.2831 43.15L31.6831 35.44L38.7331 28.3L50.5731 18.74L57.2531 14.06C58.0231 13.52 59.4431 13.11 60.3631 12.99C61.8131 11.11 64.0131 9.98 66.1931 9.01L76.9431 4.21C77.8731 3.8 79.5731 3.63 80.7331 3.66C81.3131 3.2 83.0531 1.75 84.0831 1.54L92.1731 0.02V0Z" fill="#2956E0"/>
<path d="M72.6731 186.53L63.2031 185C62.9231 184.96 61.8631 184.37 62.0031 184.21L62.9231 183.12L73.1031 186.01L73.4331 186.25L76.9031 186.73L73.1231 186.85L72.6831 186.54L72.6731 186.53Z" fill="#2956E0"/>
<path d="M84.7431 187.92C82.2931 188.45 79.8331 188.18 77.3331 187.04L84.7431 187.92Z" fill="#2956E0"/>
<path d="M67.7231 183.37L63.8631 181.71C65.0231 181.23 66.9131 181.05 67.7231 183.37Z" fill="#2956E0"/>
</svg>
