<svg width="273" height="18" viewBox="0 0 273 18" fill="none" xmlns="http://www.w3.org/2000/svg">
<path d="M44.0204 16.46C41.3004 16.73 38.9004 16.73 36.2904 16.65L29.0304 16.43L22.5704 16.15L15.6104 16.33L4.19035 16.93C2.85035 17 1.47035 17.47 0.540354 16.08C0.150354 15.51 -0.179646 14.39 0.110354 13.86C0.480354 13.16 1.44035 12.74 2.27035 12.8C5.05035 13.02 7.56035 13.08 10.2504 12.99L17.6604 12.75L22.7604 12.78L27.9004 13.04L41.8604 13.25L48.8204 12.93L54.5304 12.4L68.6104 10.5L84.0104 8.76L100.47 8.08C101.56 8.03 102.09 8.29 102.75 9.2L102.52 8.16C102.48 7.98 103.2 8.13 103.39 8.14L109.88 8.41H113.06L115.61 8.43H122.29L136.92 8.65L141.35 8.61L147.17 8.14L159.68 7.28L164.24 6.87L169.11 6.55L178.28 6.28L178.83 7.44L179.11 7.46L178.88 6.24C182.72 5.85 186.19 6.39 189.79 6.47L198.97 6.67L199.28 7.74L199.89 6.84C200.04 6.62 200.62 6.74 201 6.75L211.16 6.88C213.63 6.91 215.93 6.86 218.39 6.53L223.29 5.87L227.49 5.49L229.07 3.33C229.5 3.75 230.08 3.62 230.54 3.29C232.42 3.9 233.74 7.15 233.55 8.19C233.39 9.03 231.73 10.3 230.56 9.84C228.49 9.02 226.24 9.49 224.04 9.78L218.08 10.58L213.86 10.79L210.29 10.35H206.06L199.47 10.19H196.4L193.06 10.21L185.91 9.77L176 9.64C174.36 9.62 173.02 9.87 171.3 9.84L168.86 9.79L165.99 9.95L160.1 10.42L156.96 10.71L152.21 11.08L150.14 11.38L146.59 11.71L140.84 11.78L135.36 11.93L131.72 12.05L124.19 11.83L113.25 11.69C110.82 11.66 108.36 12.01 106 11.57C104.89 11.36 104.11 11.48 103.01 11.52L98.9304 11.69L88.3704 11.95L82.3604 12.2L79.9404 12.42L77.5404 12.62C76.8304 12.68 76.3404 12.68 75.7304 12.86C73.0504 13.65 70.4804 13.52 67.7404 13.81L65.5204 14.05L58.9904 14.94L51.8404 15.76L49.1204 16.17C48.9704 16.19 48.5004 15.64 48.3704 15.72L47.5204 16.2C46.7803 16.62 45.1104 16.37 44.0604 16.47L44.0204 16.46Z" fill="#2956E0"/>
<path d="M272.61 4.91C272.97 6.19 270.12 7.51 268.92 7.2C267.51 6.84 267.75 4.6 266.28 3.71C266.35 2.44 267.58 0.82 268.66 0.06L271.23 0L272.61 4.91Z" fill="#2956E0"/>
</svg>
