<svg width="72" height="218" viewBox="0 0 72 218" fill="none" xmlns="http://www.w3.org/2000/svg">
<path d="M70.3756 217.784H65.0156L56.9356 211.114L50.5856 204.754L47.1856 200.604L45.0756 197.994L42.1156 194.114L40.2356 190.214L38.0956 185.914L35.1056 178.624C32.4156 172.054 33.0656 154.584 34.7056 146.434L35.5756 142.084L36.8156 137.884L37.3556 135.124L39.1156 130.754C40.1356 128.214 39.4756 124.724 41.5156 122.694C41.4056 121.344 41.9356 120.054 42.4156 118.444L43.8456 113.634C44.2356 112.314 44.7056 111.974 44.9256 110.694C45.8056 105.484 47.9356 104.114 48.2856 100.564C48.3756 99.6941 49.2856 98.8041 50.1756 98.9441C50.8356 100.324 49.2756 101.444 48.7156 102.334L47.9856 105.594L44.1956 116.304L43.0856 120.564L40.6256 129.534L38.7356 135.934L37.9856 139.134C37.6856 140.414 37.3156 141.454 36.7556 142.664C36.8056 142.994 36.9556 144.314 36.8156 144.874C35.9156 148.374 35.2756 152.234 35.1956 155.914L35.0556 163.044L35.2956 168.694L36.1956 172.364C37.1056 176.074 37.7356 179.494 39.6556 182.904C40.0356 183.574 40.2256 184.734 40.1656 185.524L44.9356 193.334C46.5156 195.914 48.2056 198.214 50.3356 200.304L60.2556 210.064C60.7256 210.534 61.0156 212.144 61.0856 212.554C61.3656 212.294 62.0156 211.644 62.2356 211.834L63.2656 212.694L66.9556 215.214L70.3656 217.804L70.3756 217.784Z" fill="#2956E0"/>
<path d="M70.7956 45.7341L68.8056 52.7241C68.3857 54.2041 67.8256 55.7541 65.8256 55.7441C67.5756 51.1441 68.4956 46.7741 69.1856 42.1441L69.3556 37.8541C69.4156 36.3941 69.0257 35.1141 68.7356 33.6741C67.5556 27.9141 67.1556 26.0941 63.2456 21.2541L60.9356 18.3941C58.0456 14.8041 53.2556 11.7241 48.9756 9.38409L44.4256 6.89409L37.3856 4.38409C34.0256 3.18409 30.1256 2.78409 26.4456 2.55409L20.5256 2.82409C17.3556 2.97409 14.2356 2.57409 11.2056 3.20409L0.00564598 5.53409C-0.054354 5.25409 0.375646 4.01409 0.735646 3.65409C1.15565 3.23409 4.49565 2.21409 5.17565 2.40409C6.73565 2.82409 8.10565 2.44409 9.13565 0.864086L11.1756 1.99409L14.0556 0.0940856C14.5656 0.394086 15.2756 1.04409 15.5656 0.944086L17.1056 0.394086L20.7656 0.164086L27.4356 0.00408563C31.7156 -0.0959144 31.0856 1.67409 31.5156 1.55409L32.8656 1.17409L31.7156 1.30409C31.4756 1.33409 31.0556 0.674086 30.9756 0.384086C32.2456 0.374086 33.6556 0.624086 34.3256 1.03409L34.2256 1.90409C34.2156 2.02409 34.6356 2.26409 34.6756 2.15409L35.2056 0.904086L38.3356 1.92409C40.1456 2.25409 41.2456 2.97409 42.2356 4.48409L42.3856 3.41409C42.4156 3.19409 43.1656 3.23409 43.4056 3.34409L47.9856 5.51409L51.3156 7.34409L52.5856 7.89409C52.8956 8.02409 52.9356 8.82409 52.8856 9.13409C53.3256 8.90409 54.5456 8.95409 55.0956 9.36409L60.9756 13.7741L60.3056 15.9241C60.4556 15.9241 60.9556 15.8441 60.9856 15.6741L61.1556 14.4741C63.1256 15.6841 64.3256 17.6941 65.6056 19.5941C67.7256 22.7341 70.1756 26.8741 69.8956 29.6341C70.9156 29.6341 70.7156 30.8241 70.8756 31.5741C71.3356 33.8341 71.4856 35.7141 71.3256 37.9141L70.7756 45.7041L70.7956 45.7341Z" fill="#2956E0"/>
<path d="M59.0356 76.5041C58.4656 77.7541 58.5256 78.9941 56.7956 79.5141L57.9656 75.8741L59.6856 71.9841L60.9056 68.4241C61.3356 67.1741 62.6456 65.8141 62.8756 64.7241L63.5456 61.6141C63.8956 59.9841 64.1456 58.0341 66.3256 57.4541L64.6856 64.0141C64.3256 65.4341 63.7556 66.4341 62.4256 67.1441C62.4156 67.9041 62.3056 69.2941 61.9956 70.0041L59.0456 76.5041H59.0356Z" fill="#2956E0"/>
<path d="M53.9056 89.6941C51.5656 88.8541 53.4856 87.7441 53.6756 87.1041L54.6656 83.6541L55.9256 80.2641C57.8756 81.7241 56.2756 82.6941 55.9256 83.7341L53.9156 89.6841L53.9056 89.6941Z" fill="#2956E0"/>
<path d="M49.8956 96.2941L51.7156 91.3941C52.6756 92.4941 52.8456 93.3841 52.3856 94.3541C51.9556 95.2641 51.3656 95.9841 49.8956 96.3041V96.2941Z" fill="#2956E0"/>
</svg>
