<svg width="313" height="68" viewBox="0 0 313 68" fill="none" xmlns="http://www.w3.org/2000/svg">
<path d="M5.27052 67.8696H0L3.51368 64.2357L17.1338 51.6604L21.868 48.4426C24.6882 45.7704 27.3697 43.579 30.754 41.6927C32.8992 40.4999 34.767 39.3533 36.4961 37.541L47.6196 30.6153L61.9425 22.765L62.3771 22.7465L65.8353 21.0729L65.937 22.8205L69.5617 20.925L67.1113 20.4256C69.913 19.0109 72.2709 17.7257 75.6829 17.0137L70.5048 19.8801L70.9394 20.4996L79.5479 16.6438L76.552 16.089L82.5715 13.6849L82.9137 14.175L79.7236 16.1907C82.4236 15.8856 85.1421 15.0996 87.241 13.7219L86.8989 13.2688L84.578 12.899L88.628 11.8726L87.1208 12.8527L87.8328 13.6664L92.5763 12.0298L97.4122 10.4209L93.1958 10.4486C94.6568 9.66267 96.0807 9.0524 97.6434 8.61782L105.697 6.37091C103.663 7.98905 102.091 8.31268 99.6406 9.65343L117.431 6.06577L127.584 4.59558L135.85 3.6062L150.275 2.3949L166.613 2.2747L169.914 2.90346L175.675 3.39353L182.129 3.50448L178.079 2.15449L181.223 1.82162L183.812 1.25758C186.549 3.57846 189.804 2.06203 187.64 3.6062L182.665 3.18086L186.447 5.49249L175.324 4.88222C159.697 2.81099 144.459 3.2086 128.915 5.83461L110.265 8.98768C98.3091 11.8171 86.6215 14.9332 75.5257 20.0835L60.9162 26.8612L43.7823 36.792L27.4345 47.8324L19.7598 53.9073L6.72223 65.4932C6.22292 65.9371 5.4647 67.4812 5.23354 67.8789L5.27052 67.8696ZM62.8394 23.2273L62.6175 23.4955L60.9162 24.6513L64.6333 23.5602L62.8394 23.2366V23.2273Z" fill="#2956E0"/>
<path d="M312.052 67.8696H309.565C309.435 67.2408 310.388 66.4641 310.767 66.7693L312.052 67.8696Z" fill="#2956E0"/>
<path d="M235.555 17.2541C237.266 16.4866 237.802 16.5698 238.431 16.9397C239.615 17.6332 239.855 19.0294 239.282 19.9171L232.208 16.5976C231.829 16.4311 231.718 17.7811 231.885 18.7705L221.704 15.488C220.234 15.0164 218.801 14.2027 218.274 13.1856L224.044 15.1551C226.318 15.9318 228.5 16.5698 230.59 16.7733L228.824 15.4048C228.528 15.1736 228.436 14.3877 228.695 14.101C228.981 13.7866 229.786 13.6017 230.137 13.8236L235.555 17.2541Z" fill="#2956E0"/>
<path d="M263.203 32.0023L256.998 28.5256C251.57 25.4835 246.67 23.2181 240.623 20.6476L244.515 20.2777C247.465 22.9314 252.837 25.8071 256.536 25.9273L263.563 31.2441L264.109 31.5677L266.642 33.0657C266.735 33.1211 267.058 33.565 267.132 33.6574L271.968 35.1831C274.095 35.8581 276.009 36.1263 276.545 38.928L280.429 41.9701C281.566 42.3029 282.139 42.7098 282.87 43.579L283.406 43.9858C284.405 44.6978 285.293 45.6409 285.912 46.9539L282.777 44.744L282.482 44.4204L266.818 34.2954L266.291 33.8978L263.711 32.3167L263.203 32.0023Z" fill="#2956E0"/>
<path d="M169.544 1.60894L155.508 1.28532L157.339 0.0185412L176.304 1.40552C174.223 2.86647 171.838 1.65518 169.535 1.5997L169.544 1.60894Z" fill="#2956E0"/>
<path d="M204.774 6.97193C203.932 7.02741 201.565 7.09214 200.576 6.8055L190.664 3.91133L194.926 3.15312C196.757 5.04866 201.352 5.52947 201.5 5.40002L203.294 3.85585L203.082 5.474C203.045 5.74215 203.451 5.8531 204.774 6.96269V6.97193Z" fill="#2956E0"/>
<path d="M301.631 60.01L290.859 50.7173C293.392 50.5323 295.464 52.4834 296.73 54.5638C297.553 54.869 299.264 55.4145 299.68 55.9971L301.936 59.2056C301.992 59.2888 302.556 59.6032 302.63 59.6772L305.274 62.4419L301.955 60.2874L301.622 60.01H301.631Z" fill="#2956E0"/>
<path d="M119.437 4.54934L107.5 7.15686L107.047 6.39865L123.904 2.68154C123.608 5.18735 120.935 4.21647 119.428 4.54934H119.437Z" fill="#2956E0"/>
<path d="M216.683 10.874L213.983 10.199L206.318 7.55447C209.351 5.17811 210.96 9.45925 212.245 7.21234C212.421 6.90721 212.92 7.95207 213.16 8.54384L217.099 10.3192H217.7C219.633 10.3562 222.342 11.2161 224.062 13.2688L216.85 11.3363L216.683 10.8647V10.874Z" fill="#2956E0"/>
<path d="M140.307 1.21134C136.09 2.97743 129.174 3.43051 125.087 3.01442L134.731 1.58121C136.719 1.28532 138.356 0.693538 140.298 1.21134H140.307Z" fill="#2956E0"/>
<path d="M154.676 1.33155L142.239 1.47025L141.907 0.896962L147.547 0.776757C149.72 0.453128 152.207 -1.07255 154.676 1.3223V1.33155Z" fill="#2956E0"/>
<path d="M194.852 6.56509C193.253 7.30481 191.57 7.05515 189.72 6.02879C191.117 5.62194 192.799 5.55721 194.852 6.56509Z" fill="#2956E0"/>
<path d="M202.212 8.99692L198.902 8.03528L200.631 7.47125C201.103 7.31405 201.685 8.1185 202.203 9.00617L202.212 8.99692Z" fill="#2956E0"/>
<path d="M259.217 31.9746L256.406 30.5229C257.664 30.042 258.82 30.7355 259.217 31.9746Z" fill="#2956E0"/>
<path d="M211.366 11.0497C211.172 11.5027 209.61 11.1606 209.083 10.4394C209.286 9.99555 210.849 10.3284 211.366 11.0497Z" fill="#2956E0"/>
</svg>
