<svg width="438" height="173" viewBox="0 0 438 173" fill="none" xmlns="http://www.w3.org/2000/svg">
<path d="M49.3226 75.81C79.3426 67.88 102.823 67.88 131.893 79.75L144.253 86.06L149.713 88.94L156.393 92.68L160.763 95.01L171.643 100.21L177.793 103.25L182.143 105.13L186.283 106.74L191.503 109.29C193.443 109.57 195.473 109.84 196.813 112.11L200.713 112.49C202.243 112.64 204.333 114.33 205.633 115.46C208.473 115.31 211.253 115.57 212.603 117.93C213.253 117.51 214.123 116.95 214.483 117.25L216.443 118.9C219.213 117.75 221.573 120.45 224.093 120.85L242.253 123.71L248.063 124.52C251.583 124.39 254.953 124.94 258.113 125.49L271.083 125.27L275.553 125.36L285.903 124.54L301.853 121.98L313.643 119.73L320.033 118.23C332.323 115.35 344.123 111.62 355.843 106.9L380.833 95.62L394.353 88.21L397.923 86.08L406.403 79.54L416.993 70.38L419.843 66.67L425.133 59.39L428.993 52.94C433.813 44.87 435.573 32.54 430.813 24.84L428.203 20.62C425.693 16.56 421.673 13.71 417.763 10.85C408.233 3.89 399.383 3.55 387.963 3.3L381.113 3.85L374.863 4.46L361.753 6.34L343.003 10.45L338.793 11.96C327.823 15.89 317.093 19.78 306.743 25.02L291.763 33.93L283.933 39.17L276.933 43.68L259.663 56.51L237.333 75.08L233.033 78.58L230.123 80.81L222.663 85.88L219.223 88.09L216.353 89.97L209.963 94.17C209.153 94.7 207.263 94.17 206.813 93.31C206.313 92.37 206.883 91.05 207.653 90.18L209.123 88.52C209.463 88.14 210.923 89.03 211.483 89.27L215.983 86.46L224.853 80.69L228.263 78.45L243.773 66L252.753 58.27L272.093 43.38L284.993 34.94L290.243 31.41C297.313 26.65 304.513 22.56 312.313 19.21L316.033 17.61L327.583 13.08L337.883 9.46L351.813 5.27L364.993 2.84L370.363 2.09L379.053 0.85L390.233 0L397.613 0.08L401.823 0.69L411.273 3.35L415.013 4.74L428.783 15.48C430.533 16.84 431.503 20.05 432.723 21.93C435.213 25.75 437.433 32.18 437.053 36.36C436.753 39.61 436.443 42.82 435.453 45.79C432.703 54.02 428.703 61.22 422.743 67.41L412.283 78.28C408.033 82.69 403.213 86.24 397.893 89.33L391.623 92.97L385.943 96.13C375.543 101.91 364.993 106.55 353.863 110.62L343.113 114.55L326.993 119.28C314.853 122.84 302.863 125.59 290.333 127.05L280.863 128.15L267.893 129.02L258.043 128.96L251.063 128.49L228.363 125.68C218.043 123.75 208.793 120.34 199.053 116.61L186.913 111.96L163.263 100.32L133.213 84.3L122.653 79.77L112.603 76.8C105.903 74.82 99.1126 74.3 92.0926 73.51L85.7326 73.47L76.1026 73.72L72.1526 74.37C65.1926 75.52 58.4926 76.06 51.6926 77.87L45.1026 79.62L38.7326 82.03L33.4126 84.53L27.8926 87.36C25.9726 88.34 24.3326 89.56 22.6726 90.95L17.2826 95.45L11.4626 102.1C6.88258 107.34 2.08258 117.22 2.99258 123.76C4.23258 132.66 9.41258 147.99 16.1526 152.25L28.0426 159.77C34.8226 164.06 53.9826 169.24 62.8326 169.42L70.6826 169.58C72.5326 169.62 74.4626 169.4 76.1926 169L83.7426 167.28L90.3726 165.45C105.763 159.78 120.603 149.08 130.733 136.22L142.173 121.71C143.493 120.03 144.913 118.84 145.353 116.5C145.623 115.08 148.033 113.78 149.173 114.82C151.053 116.51 149.813 119.1 148.403 120.64L138.733 131.24L124.683 147.34L119.773 151.7L112.963 156.86L108.623 159.86L103.313 162.89L95.8326 166.79C90.4026 169.62 84.8226 171.42 78.7726 172.13L72.6926 172.84L67.0226 172.88C55.6426 172.96 39.2326 168.85 29.0326 163.98C22.8826 161.05 17.0526 157.94 11.7826 153.65C9.70258 151.96 8.17258 148.32 7.17258 145.97L2.77258 135.62C-3.14742 121.69 0.922581 110.56 10.1526 99.28C14.5126 93.96 19.4626 89.49 25.3026 85.79C31.1426 82.09 37.1326 79.06 43.8826 77.28L49.2926 75.85L49.3226 75.81Z" fill="#2956E0"/>
</svg>
