<svg width="395" height="291" viewBox="0 0 395 291" fill="none" xmlns="http://www.w3.org/2000/svg">
<path d="M263.962 138.603C264.602 137.844 265.491 137.086 266.589 136.772C268.145 136.315 269.27 134.811 270.564 134.158L275.623 131.622C273.95 134.759 269.086 134.916 269.126 137.217L277.741 131.308L283.14 127.621C285.468 126.039 286.971 123.686 289.743 122.575C290.854 122.13 291.39 119.986 293.429 120.313L291.037 122.509L283.912 128.366L279.519 131.582L276.813 133.491L272.08 136.812L269.047 138.642L264.838 140.838L261.791 142.42L254.836 145.754C252.418 146.917 250.091 147.676 247.398 148.225L244.469 149.271L236.39 151.271L228.742 152.827L222.558 153.703C217.224 154.461 211.772 154.409 206.425 153.441L203.523 158.187L197.731 166.868L193.221 173.47C192.92 173.914 191.508 173.731 190.724 173.326C192.201 171.051 193.692 168.829 195.496 166.946C196.437 165.979 196.777 165.613 197.509 164.279L199.719 160.266C199.849 160.03 201.157 160.03 201.091 159.756L200.751 158.435L204.02 153.167L197.065 151.454L190.933 149.558L184.867 147.257L181.272 145.492C176.278 143.048 171.467 139.975 167.636 135.949L163.557 131.648L160.943 128.497C158.498 125.555 156.301 122.562 154.772 119.058L151.19 110.874C148.771 105.357 147.934 92.1657 149.542 86.531C150.157 84.387 150.824 82.3344 151.987 80.478C154.641 76.2422 157.4 72.3986 160.929 68.8818L163.06 67.0908C164.577 65.8096 166.159 64.1492 168.068 63.404L174.97 60.724C177.18 59.8611 179.35 59.299 181.756 59.0636L185.808 58.6584L190.685 58.4623C191.299 58.4361 192.371 58.8414 192.999 59.2467L193.613 58.3315C193.77 58.0962 194.385 58.6976 194.698 58.9068L195.404 58.1877C195.522 58.0701 195.81 58.5538 195.81 58.7237V59.7565L197.444 58.6584C200.163 59.0375 201.157 60.201 202.948 60.737L207.38 62.0575L210.373 64.5414L211.785 64.3192C212.086 64.2669 212.138 65.4827 212.125 65.718C213.498 66.3194 214.74 66.96 215.707 68.0974L221.695 75.0787C222.427 75.9415 223.042 76.8044 223.382 77.9287L225.421 84.6877C226.938 89.6948 227.369 94.8719 226.571 100.088L226.022 103.723L225.212 108.22L224.048 113.606L220.466 124.562C218.597 130.249 216.1 135.596 213.315 140.891L208.229 150.552L211.132 150.813C213.707 151.036 215.877 151.271 218.466 150.657C220.558 150.16 222.78 150.5 224.728 150.657L228.611 150.212L232.507 149.035L238.259 147.806L241.488 146.904L245.724 145.636L249.189 144.865L251.751 143.688L256.157 141.793C256.484 141.649 257.281 141.701 257.595 141.662C257.909 141.623 258.183 140.642 258.484 140.511L260.876 139.466C261.831 138.825 262.694 138.485 263.635 138.459L263.988 138.577L263.962 138.603ZM202.908 149.911L205.902 150.264L209.837 143.701L212.583 138.537L217.041 128.876L219.564 123.346C220.44 121.424 221.355 119.006 221.76 116.835L224.728 101.121C225.277 98.2187 224.99 95.1072 224.702 92.0873L224.192 86.6226C223.251 76.6736 214.622 67.9798 205.562 63.9531C202.778 62.7111 200.111 61.4822 197.052 60.9724C187.482 59.3513 177.467 60.6194 168.747 64.8944L164.054 67.9013C163.518 68.2412 162.394 69.0518 161.975 69.5224L158.72 73.1176L155.87 77.0658L153.752 81.7854L151.883 88.2829C151.059 92.5448 151.7 96.8199 151.634 101.03C151.608 102.428 151.177 103.657 151.935 104.991C152.994 106.821 153.334 108.926 154.079 110.9L155.622 114.979L157.06 118.574C157.57 119.829 158.642 121.633 159.596 122.692L168.447 132.497C176.735 141.688 190.815 147.401 202.895 149.937L202.908 149.911ZM264.223 138.943L264.145 139.1L262.929 139.897L264.759 139.139L264.236 138.943H264.223ZM261.229 140.878C261.818 140.459 261.556 140.328 260.929 140.538L259.778 140.956C259.569 141.034 260.157 141.662 260.34 141.518L261.229 140.864V140.878ZM256.405 143.388L257.137 142.825C257.242 142.747 256.706 142.656 256.575 142.708L256 143.009C255.817 143.1 255.072 143.623 255.281 143.649C255.412 143.662 255.725 143.845 255.83 143.78L256.405 143.401V143.388ZM189.037 147.284C187.965 145.989 186.619 145.702 185.194 145.976L189.037 147.284ZM193.613 148.512C192.071 147.82 190.868 147.506 189.547 147.284C190.802 148.159 192.24 148.852 193.613 148.512ZM205.366 151.376L193.744 148.578C195.823 150.042 198.215 150.421 200.529 150.905C202.163 151.258 203.654 152.134 205.353 151.362L205.366 151.376ZM240.063 148.813C238.56 148.748 237.148 148.957 235.723 149.65C237.253 150.042 238.704 149.598 240.063 148.813ZM214.465 152.068C212.047 152.173 209.667 151.519 207.066 152.016C216.322 153.493 225.526 152.251 234.677 150.264C234.925 150.212 235.435 150.094 235.448 150.094C235.461 150.094 235.03 149.715 234.978 149.663L231.435 150.473L226.768 151.14L223.669 151.454L218.727 151.885L214.465 152.068Z" fill="#2956E0"/>
<path d="M150.052 227.895C149.974 227.96 149.281 227.529 149.438 227.359L150.17 226.548C151.373 225.202 152.34 223.855 153.804 222.953L150.275 227.555L150.523 227.869L151.02 227.947C151.15 227.973 150.994 228.731 150.902 228.849L147.542 232.967L142.195 238.654L137.554 243.884L133.841 247.453L130.102 251.231L126.965 254.264L116.48 263.559C115.421 264.5 114.479 264.893 113.525 265.965C112.858 266.71 111.642 267.86 110.78 268.449L102.151 274.332L97.5884 276.96C97.2224 277.169 96.451 277.456 96.0719 277.665L91.104 280.463L88.1101 282.045L84.8025 283.366L82.397 284.372C79.6516 285.523 77.05 286.372 74.1999 287.222C69.5458 288.621 65.14 290.229 60.1852 290.634L52.9947 290.7C49.491 290.726 46.105 290.491 42.732 289.523L36.0907 287.627L28.3512 284.359C20.1803 279.927 13.4344 273.495 9.04166 265.324L5.99554 258.827L3.21088 253.244C1.62899 250.08 0.936095 246.511 0.0470977 243.008C-0.214372 242.001 0.661552 240.759 1.47211 240.628C2.2173 240.498 3.57694 241.138 3.83841 242.027L7.27674 253.793C7.8389 255.715 8.62331 257.938 9.94373 259.402L15.513 265.572L20.7817 270.723C17.8401 270.122 15.6176 266.265 12.3885 264.657C14.964 268.854 17.827 272.985 21.8537 275.979C26.3117 279.287 30.6652 282.856 36.0646 284.163L50.1578 287.562C53.3216 288.333 56.6684 288.085 59.8191 287.523L64.1072 286.752L70.644 285.732L70.5263 285.157C70.5001 285.026 70.5917 284.699 70.6962 284.764L71.3761 285.104C71.5983 285.222 72.2912 285.614 72.3827 285.379L72.8534 284.15L74.396 284.791C74.8405 284.974 75.7034 283.875 75.9256 283.431C76.3832 283.745 77.3114 284.032 78.1612 283.993C78.828 283.954 79.6647 283.156 80.1092 282.307C81.9787 282.633 84.1489 281.679 84.8287 279.692C86.0707 280.202 86.6851 280.123 87.6656 279.692L89.1429 279.064C89.4698 278.921 89.5613 277.744 89.9143 277.692C90.1496 277.652 90.8817 277.77 91.1301 277.822C91.3785 277.875 91.6008 276.881 91.8753 276.75L97.6015 273.953C98.5036 273.508 98.7781 273.299 99.7455 273.077C99.7194 273.116 100.151 272.397 100.308 272.122L105.746 268.331C106.4 267.873 107.145 267.73 107.969 267.847L109.773 266.056L109.969 265.115C110.021 264.84 110.819 265.167 110.976 265.389L111.146 265.337L112.022 264.592L112.205 263.441L116.179 259.951L117.525 259.82C117.552 259.31 117.839 258.225 118.166 258.382L119.173 258.866C117.303 261.611 114.61 262.108 114.283 263.742L117.146 261.533L120.428 259.01C120.519 258.944 120.676 258.081 120.663 258.094C120.663 258.094 120.349 258.121 120.232 258.134L119.447 258.199L121.5 255.78C121.918 254.905 122.323 254.316 123.369 254.316L121.709 257.009L124.624 255.297C125.291 254.905 125.474 253.728 125.069 253.1C125.2 252.159 126.337 251.152 127.566 250.865L126.481 252.525C126.834 252.551 127.958 252.224 128.01 251.819C128.063 251.479 127.932 250.839 127.84 250.276L131.423 246.211L135.096 241.923C136.273 240.55 137.371 239.491 139.463 239.256L137.24 241.387L137.188 242.694L141.149 238.118C140.888 237.125 141.123 236.17 141.881 235.412L145.921 231.398L148.837 228.208C149.006 228.365 149.49 228.98 149.608 228.81L150.183 228.025L150.052 227.908V227.895ZM111.773 265.651L111.106 265.625L110.505 266.762L111.786 265.651H111.773ZM106.269 269.9C107.263 269.795 108.139 269.56 108.819 268.318L106.269 269.9ZM101.537 273.024L98.4643 274.789C99.824 275.051 101.04 274.41 101.537 273.024Z" fill="#2956E0"/>
<path d="M332.977 79.5106L338.088 74.1635L342.651 68.3197C341.004 68.9341 340.35 71.3004 338.141 72.7124C338.363 72.0064 338.677 71.6403 339.173 71.052C341.357 68.4635 343.488 65.6919 346.115 63.5609C346.939 62.8942 347.201 62.8288 347.606 61.9267C348.207 60.554 349.698 59.4166 350.574 58.2008C351.868 56.4097 353.084 55.0108 354.783 53.5728C355.136 53.1675 355.777 52.5792 356.051 52.8145C356.653 53.3244 357.947 52.1347 357.685 51.4156L356.561 52.2262L356.169 51.8863L358.692 48.7356L362.51 44.6436L365.464 40.7215L367.216 38.0415L367.752 38.7474C367.961 39.0089 369.726 37.7408 369.007 36.0543L372.602 31.1517L377.008 25.2425L379.858 21.2812L381.95 18.039L385.454 12.7573L389.82 5.38388L391.794 1.63179L392.605 0.23293C392.84 -0.172348 394.239 0.0499011 394.827 0.167562L389.415 10.2341L377.962 27.648L367.425 41.4406L363.399 46.5785L352.888 58.8152L349.07 63.3648L344.351 68.5942L331.839 82.2691L327.407 87.0017L322.858 91.9565L318.374 96.5976L315.197 99.866L311.209 103.84L302.267 112.443L296.645 117.777C295.939 118.457 295.469 119.79 293.874 119.071L299.025 114.391L302.006 111.724L303.875 109.854L307.418 106.167L319.393 94.166L324.518 88.7535L333.029 79.4714L332.977 79.5106Z" fill="#2956E0"/>
<path d="M172.382 201.996L172.591 198.832L174.644 197.917C174.814 197.839 175.363 197.172 175.271 197.002L174.709 195.969L178.827 190.191L180.605 187.798C182.174 187.092 183.756 185.876 183.416 183.902L190.384 174.071C190.763 174.476 191.208 174.96 191.064 175.117L190.162 176.071L189.6 176.895C189.469 177.091 189.94 177.209 190.685 177.483L188.724 179.654C188.384 180.033 187.534 180.608 187.024 180.922L187.09 181.954C187.103 182.216 186.384 182.569 186.214 182.83L182.801 187.916L181.18 190.217L172.382 201.996Z" fill="#2956E0"/>
<path d="M170.172 204.911C169.31 206.101 168.917 207.474 167.296 207.801L169.898 203.317L170.421 202.022C170.538 201.722 171.611 202.088 172.003 202.362L170.159 204.898L170.172 204.911Z" fill="#2956E0"/>
<path d="M290.54 120.888C289.429 119.62 290.854 119.123 291.625 118.574L296.227 115.24C294.671 117.319 292.789 119.006 290.527 120.888H290.54Z" fill="#2956E0"/>
<path d="M306.869 105.344C305.718 107.135 304.254 108.678 302.123 109.75C303.221 107.775 304.803 106.52 306.869 105.344Z" fill="#2956E0"/>
<path d="M164.773 210.154C164.433 210.991 163.466 211.919 162.786 212.808C162.498 210.638 164.119 209.33 165.518 208.311L164.773 210.154Z" fill="#2956E0"/>
<path d="M158.184 218.377L158.864 219.266C159.034 219.488 158.289 220.299 158.093 220.09L157.295 219.24C157.204 219.135 157.02 218.652 157.099 218.534L157.452 218.037C157.57 217.867 158.04 218.22 158.184 218.377Z" fill="#2956E0"/>
<path d="M283.873 125.464C284.278 124.732 285.115 124.209 286.043 123.621C286.866 123.098 287.455 122.235 288.618 122.405L283.873 125.477V125.464Z" fill="#2956E0"/>
<path d="M275.976 131.19L279.428 128.889L279.415 129.373L276.355 131.648L275.976 131.19Z" fill="#2956E0"/>
<path d="M307.313 104.952L308.555 103.265C309.183 104.128 308.255 105.069 307.313 104.952Z" fill="#2956E0"/>
<path d="M160.773 214.913L159.779 215.671L160.302 214.481C160.38 214.285 160.825 214.442 160.956 214.612L161.139 214.887L161.622 214.625C161.714 214.573 162.132 214.573 162.067 214.664L161.688 215.253L161.269 215.893C161.204 215.985 161.034 215.959 161.021 215.841L160.943 215.096L160.773 214.913Z" fill="#2956E0"/>
<path d="M167.126 209.278L166.107 209.566C165.937 209.618 165.557 209.056 165.727 208.99L166.852 208.585L167.126 209.278Z" fill="#2956E0"/>
<path d="M154.785 223.044L155.909 221.685C156.04 222.391 155.674 222.901 154.785 223.044Z" fill="#2956E0"/>
</svg>
