<svg width="40" height="52" viewBox="0 0 40 52" fill="none" xmlns="http://www.w3.org/2000/svg">
<path d="M4.82969 36.1338L6.12969 43.6338L5.81969 45.5238C5.76969 45.8438 6.72969 45.8938 7.05969 45.9838L12.9197 50.9938C12.1997 51.7638 9.74969 52.1538 8.50969 51.3038L3.54969 47.9138C2.39969 47.1238 2.19969 43.8538 1.63969 42.5338C0.0296891 38.6638 -0.200311 35.0738 0.129689 30.9038L0.459689 26.8738C0.919689 21.2638 1.61969 16.1438 3.02969 10.6238L3.92969 3.96383C4.07969 2.84383 4.34969 1.37383 4.96969 0.793825C6.68969 -0.836175 11.1197 0.393825 11.2897 1.37383L11.7797 4.08383L12.2597 5.48383C12.6497 6.61383 8.81969 6.66383 8.02969 10.2538L7.00969 8.61382L3.67969 11.4138L6.51969 10.8238C7.11969 10.7038 7.15969 12.5638 7.02969 13.2838L4.91969 25.1738L2.81969 28.3938L4.71969 27.4138L4.80969 36.1438L4.82969 36.1338ZM3.40969 19.0938C4.75969 18.8238 4.75969 16.9938 3.59969 16.8838L3.40969 19.0938Z" fill="#2956E0"/>
<path d="M36.4597 39.1138C35.7497 38.8538 35.0197 38.0838 34.5697 37.1138C27.8797 22.5838 31.7297 14.7838 30.6697 8.99382C30.4697 7.90382 30.6897 6.23383 31.3197 5.44383C31.9497 4.65383 34.1797 4.01383 35.0397 4.71383C37.3197 6.58383 37.0597 10.0738 34.8497 11.8938L35.4797 13.9138C35.6397 14.4238 34.3197 15.1138 33.7797 15.5638C33.3697 15.9138 34.4597 17.2238 34.9397 17.6538C34.9397 23.2838 35.5397 29.0638 36.8997 34.6538C37.2397 36.0438 37.3997 37.3238 37.3897 38.4138L37.3297 38.8038L39.1997 40.8338L38.8497 41.9938C38.7797 42.2338 37.4397 42.4338 37.3897 42.1938L36.7997 39.2238L36.4697 39.1238L36.4597 39.1138Z" fill="#2956E0"/>
</svg>
