<svg width="180" height="140" viewBox="0 0 180 140" fill="none" xmlns="http://www.w3.org/2000/svg">
<path d="M176 24.4833L173.4 39.8033L171.63 52.9233L169.97 61.4033L168.12 69.3433L165.23 79.9333L161.83 89.7233L158 99.4233L156.33 102.883L154.11 107.033L148.62 115.373C146.25 118.973 141.63 120.823 137.3 120.253C135.36 120.003 132.49 119.763 131.03 118.783L126.74 115.913C125.88 115.333 124.22 113.693 123.78 112.753L120.74 106.213L119.06 101.233L116.34 90.4433L114.91 84.1833L109.77 56.6233L107.87 47.5433L105.5 37.4133L103.33 30.5633L100.44 23.8933C97.18 16.3733 91.56 10.6533 83.98 7.82327C80.03 6.35327 74 7.97327 71 10.8833L67.26 14.5233C67.69 13.3233 68.41 11.2433 69.18 10.6533L74.05 6.92327C71.86 6.34327 70.37 7.92327 68.93 9.33327C66.48 11.7333 64.31 14.1233 62.89 17.2333L59.72 24.1933C57.73 28.5733 56.45 32.8233 55.77 37.5833L54.29 47.9433L53.65 54.5733L53.07 60.8833L52.96 68.0933L52.76 73.8833L52.13 85.7733L51.19 97.9833L48.83 116.473C48.25 121.023 44.65 130.303 41.22 133.013C39.37 134.473 37.63 135.743 36.3 137.523C40.24 136.353 42.51 133.503 44.49 130.593L46.78 127.223C46.34 131.553 43.52 133.863 40.67 136.363C36.53 139.993 29.47 140.393 24.05 138.823C21.53 138.083 19.65 136.513 18.44 134.233C16.08 133.213 14.32 131.613 13.19 129.413C11.13 126.853 9.41 124.353 8.18 121.383L5.06 113.873C2.05 106.643 0.73 93.5733 0.37 85.0833L0 76.3633L0.28 67.5333C0.54 59.5133 1.25 51.6633 1.94 43.5933C2.51 36.8833 3.86 30.5833 4.88 23.9933L5.63 19.1233L6.75 11.9333L7.49 8.16327L7.89 0.0132738L11.96 0.0532738L9.97 14.9433L6.6 33.5433L4.77 46.5833L3.96 54.2933L2.98 73.8133C2.4 85.4433 4.3 100.543 7.34 111.883C8.29 115.423 10.06 118.953 11.95 122.033L14.52 126.233C14.97 126.973 16.27 128.313 16.94 128.863C22.6 133.403 28.72 135.543 35.42 132.853C36.29 132.503 38.1 131.253 38.69 130.513L42.06 126.263L44.78 122.123C46.68 116.933 47.13 111.783 47.85 106.523L48.89 98.9333L50.34 86.9933C50.57 85.0533 50.63 83.7433 50.74 81.7433L51.2 73.2733L51.78 67.6033C51.86 59.4433 52.08 51.6733 53.27 43.6333C54.08 38.2033 54.81 32.9633 56.57 27.7733L58.04 23.4433L62.02 14.9533C63.2 12.4333 64.72 10.4533 66.54 8.38327C72.24 1.90327 80.38 0.133274 87.82 4.44327C90.96 6.26327 94.25 8.52327 96.77 11.3833C106.21 22.0933 110.24 45.9833 113.18 61.1133L113.77 64.1433L116.59 79.3333L117.43 83.6033L120.5 96.3333C121.96 102.373 124.54 107.533 128.63 112.243C129.9 113.703 131.6 114.633 133.65 115.363C142 118.333 143.03 115.883 148.05 110.433C150.43 107.853 151.57 104.433 153.41 101.483C154.56 99.6433 155.35 98.0033 156.16 96.0433L159.82 87.2333C161.77 82.5433 163.54 77.4833 164.39 72.4033C164.73 70.3533 164.77 69.2433 166.07 67.5233C166.78 66.5833 166.76 64.2033 166.56 62.8133L167.7 61.1833L169.52 54.4233L170.33 48.7233L170.99 43.4133L171.92 35.6433L172.56 32.6433L173.85 24.0533L175.99 9.09327L177.16 2.02327L177.56 0.283274C177.65 -0.106726 178.96 0.00327384 179.45 0.0532738L178.49 3.93327L178.09 8.50327L177.71 12.5433L176.5 21.1033L176.01 24.4833H176ZM78.49 5.47327C78.75 5.43327 79.89 5.23327 79.71 5.05327L79 4.31327C78.88 4.19327 78.36 4.52327 78.2 4.60327L77.38 5.01327C77.26 5.07327 77.72 5.57327 77.86 5.55327L78.47 5.46327L78.49 5.47327ZM84.07 5.16327L80.5 5.11327L85.62 6.82327L84.07 5.16327ZM88.99 7.85327L86.35 6.77327C86.9 8.15327 87.88 8.39327 88.99 7.85327ZM29.46 137.333L23.61 136.733C25.19 138.173 27.95 138.703 29.46 137.333ZM32.17 137.073L30.3 137.333C30.59 138.393 32.02 138.353 32.17 137.073Z" fill="#2956E0"/>
</svg>
